<?xml version="1.0"?>
<svg xmlns="http://www.w3.org/2000/svg" width="1240" height="560"><style>.t{font:700 24px system-ui}.s{font:600 15px system-ui}.x{font:12px system-ui;fill:#475569}</style><rect width="1240" height="560" fill="white"/>
<text x="36" y="42" class="t">A203 — lane-major assertion-order boundary</text>
<text x="36" y="70" class="s">Same 128 equalities · different Bitwuzla preprocessed formula · same complete UNKNOWN frontier</text>
<rect x="36" y="96" width="1168" height="112" rx="9" fill="#fafbfc" stroke="#9aa6b2"/>
<text x="58" y="130" class="s">A202 block-major SHA 532479d8427f…1bd9</text>
<text x="58" y="158" class="s">A203 lane-major SHA 7722f9deb960…69da8</text>
<text x="58" y="188" class="x">Equal assertion multiset; ordering changes the internal preprocessed bytes.</text>
<rect x="36" y="230" width="1168" height="248" rx="9" fill="#fafbfc" stroke="#9aa6b2"/>
<text x="58" y="264" class="s">32 × 2¹⁵ = 2²⁰ · 10,000 ms/cell · 32 UNKNOWN · 0 models</text>
<rect data-cell="00000" x="58" y="286" width="126" height="32" rx="4" fill="#f1f3f5" stroke="#7c3aed"/>
<text x="121" y="307" text-anchor="middle" class="x">00000 · UNKNOWN</text>
<rect data-cell="00001" x="198" y="286" width="126" height="32" rx="4" fill="#f1f3f5" stroke="#7c3aed"/>
<text x="261" y="307" text-anchor="middle" class="x">00001 · UNKNOWN</text>
<rect data-cell="00010" x="338" y="286" width="126" height="32" rx="4" fill="#f1f3f5" stroke="#7c3aed"/>
<text x="401" y="307" text-anchor="middle" class="x">00010 · UNKNOWN</text>
<rect data-cell="00011" x="478" y="286" width="126" height="32" rx="4" fill="#f1f3f5" stroke="#7c3aed"/>
<text x="541" y="307" text-anchor="middle" class="x">00011 · UNKNOWN</text>
<rect data-cell="00100" x="618" y="286" width="126" height="32" rx="4" fill="#f1f3f5" stroke="#7c3aed"/>
<text x="681" y="307" text-anchor="middle" class="x">00100 · UNKNOWN</text>
<rect data-cell="00101" x="758" y="286" width="126" height="32" rx="4" fill="#f1f3f5" stroke="#7c3aed"/>
<text x="821" y="307" text-anchor="middle" class="x">00101 · UNKNOWN</text>
<rect data-cell="00110" x="898" y="286" width="126" height="32" rx="4" fill="#f1f3f5" stroke="#7c3aed"/>
<text x="961" y="307" text-anchor="middle" class="x">00110 · UNKNOWN</text>
<rect data-cell="00111" x="1038" y="286" width="126" height="32" rx="4" fill="#f1f3f5" stroke="#7c3aed"/>
<text x="1101" y="307" text-anchor="middle" class="x">00111 · UNKNOWN</text>
<rect data-cell="01000" x="58" y="328" width="126" height="32" rx="4" fill="#f1f3f5" stroke="#7c3aed"/>
<text x="121" y="349" text-anchor="middle" class="x">01000 · UNKNOWN</text>
<rect data-cell="01001" x="198" y="328" width="126" height="32" rx="4" fill="#f1f3f5" stroke="#7c3aed"/>
<text x="261" y="349" text-anchor="middle" class="x">01001 · UNKNOWN</text>
<rect data-cell="01010" x="338" y="328" width="126" height="32" rx="4" fill="#f1f3f5" stroke="#7c3aed"/>
<text x="401" y="349" text-anchor="middle" class="x">01010 · UNKNOWN</text>
<rect data-cell="01011" x="478" y="328" width="126" height="32" rx="4" fill="#f1f3f5" stroke="#7c3aed"/>
<text x="541" y="349" text-anchor="middle" class="x">01011 · UNKNOWN</text>
<rect data-cell="01100" x="618" y="328" width="126" height="32" rx="4" fill="#f1f3f5" stroke="#7c3aed"/>
<text x="681" y="349" text-anchor="middle" class="x">01100 · UNKNOWN</text>
<rect data-cell="01101" x="758" y="328" width="126" height="32" rx="4" fill="#f1f3f5" stroke="#7c3aed"/>
<text x="821" y="349" text-anchor="middle" class="x">01101 · UNKNOWN</text>
<rect data-cell="01110" x="898" y="328" width="126" height="32" rx="4" fill="#f1f3f5" stroke="#7c3aed"/>
<text x="961" y="349" text-anchor="middle" class="x">01110 · UNKNOWN</text>
<rect data-cell="01111" x="1038" y="328" width="126" height="32" rx="4" fill="#f1f3f5" stroke="#7c3aed"/>
<text x="1101" y="349" text-anchor="middle" class="x">01111 · UNKNOWN</text>
<rect data-cell="10000" x="58" y="370" width="126" height="32" rx="4" fill="#f1f3f5" stroke="#7c3aed"/>
<text x="121" y="391" text-anchor="middle" class="x">10000 · UNKNOWN</text>
<rect data-cell="10001" x="198" y="370" width="126" height="32" rx="4" fill="#f1f3f5" stroke="#7c3aed"/>
<text x="261" y="391" text-anchor="middle" class="x">10001 · UNKNOWN</text>
<rect data-cell="10010" x="338" y="370" width="126" height="32" rx="4" fill="#f1f3f5" stroke="#7c3aed"/>
<text x="401" y="391" text-anchor="middle" class="x">10010 · UNKNOWN</text>
<rect data-cell="10011" x="478" y="370" width="126" height="32" rx="4" fill="#f1f3f5" stroke="#7c3aed"/>
<text x="541" y="391" text-anchor="middle" class="x">10011 · UNKNOWN</text>
<rect data-cell="10100" x="618" y="370" width="126" height="32" rx="4" fill="#f1f3f5" stroke="#7c3aed"/>
<text x="681" y="391" text-anchor="middle" class="x">10100 · UNKNOWN</text>
<rect data-cell="10101" x="758" y="370" width="126" height="32" rx="4" fill="#f1f3f5" stroke="#7c3aed"/>
<text x="821" y="391" text-anchor="middle" class="x">10101 · UNKNOWN</text>
<rect data-cell="10110" x="898" y="370" width="126" height="32" rx="4" fill="#f1f3f5" stroke="#7c3aed"/>
<text x="961" y="391" text-anchor="middle" class="x">10110 · UNKNOWN</text>
<rect data-cell="10111" x="1038" y="370" width="126" height="32" rx="4" fill="#f1f3f5" stroke="#7c3aed"/>
<text x="1101" y="391" text-anchor="middle" class="x">10111 · UNKNOWN</text>
<rect data-cell="11000" x="58" y="412" width="126" height="32" rx="4" fill="#f1f3f5" stroke="#7c3aed"/>
<text x="121" y="433" text-anchor="middle" class="x">11000 · UNKNOWN</text>
<rect data-cell="11001" x="198" y="412" width="126" height="32" rx="4" fill="#f1f3f5" stroke="#7c3aed"/>
<text x="261" y="433" text-anchor="middle" class="x">11001 · UNKNOWN</text>
<rect data-cell="11010" x="338" y="412" width="126" height="32" rx="4" fill="#f1f3f5" stroke="#7c3aed"/>
<text x="401" y="433" text-anchor="middle" class="x">11010 · UNKNOWN</text>
<rect data-cell="11011" x="478" y="412" width="126" height="32" rx="4" fill="#f1f3f5" stroke="#7c3aed"/>
<text x="541" y="433" text-anchor="middle" class="x">11011 · UNKNOWN</text>
<rect data-cell="11100" x="618" y="412" width="126" height="32" rx="4" fill="#f1f3f5" stroke="#7c3aed"/>
<text x="681" y="433" text-anchor="middle" class="x">11100 · UNKNOWN</text>
<rect data-cell="11101" x="758" y="412" width="126" height="32" rx="4" fill="#f1f3f5" stroke="#7c3aed"/>
<text x="821" y="433" text-anchor="middle" class="x">11101 · UNKNOWN</text>
<rect data-cell="11110" x="898" y="412" width="126" height="32" rx="4" fill="#f1f3f5" stroke="#7c3aed"/>
<text x="961" y="433" text-anchor="middle" class="x">11110 · UNKNOWN</text>
<rect data-cell="11111" x="1038" y="412" width="126" height="32" rx="4" fill="#f1f3f5" stroke="#7c3aed"/>
<text x="1101" y="433" text-anchor="middle" class="x">11111 · UNKNOWN</text>
<text x="58" y="518" class="s">Ordering changes preprocessing, but does not cross the tested 10-second boundary.</text>
<text x="58" y="542" class="x">UNKNOWN is not UNSAT · no absence, recovery, or uniqueness claim</text></svg>
