<?xml version="1.0"?>
<svg xmlns="http://www.w3.org/2000/svg" width="1240" height="660">
<style>.t{font:700 24px system-ui}.s{font:600 15px system-ui}.x{font:12px system-ui;fill:#475569}.sat{fill:#dcfce7;stroke:#15803d}.unk{fill:#f1f3f5;stroke:#7c3aed}.box{fill:#fafbfc;stroke:#9aa6b2}</style>
<rect width="1240" height="660" fill="white"/>
<text x="36" y="42" class="t">A206 — bidirectional-min-distance round-10 transfer</text>
<text x="36" y="70" class="s">Unique robust A205 order · 32 complete prefix cells × two solver modes</text>
<rect x="36" y="96" width="1168" height="456" rx="9" class="box"/>
<text x="58" y="130" class="s">64/64 valid UNKNOWN · 0 SAT · 0 UNSAT · 0 invalid · 0 models</text>
<text x="758" y="160" class="x">default</text>
<text x="1018" y="160" class="x">reverse</text>
<text x="58" y="189" class="x">00000</text>
<rect data-cell="00000" data-mode="default" x="142" y="174" width="190" height="18" rx="3" class="unk"/>
<rect data-cell="00000" data-mode="reverse" x="352" y="174" width="190" height="18" rx="3" class="unk"/>
<text x="58" y="211" class="x">00001</text>
<rect data-cell="00001" data-mode="default" x="142" y="196" width="190" height="18" rx="3" class="unk"/>
<rect data-cell="00001" data-mode="reverse" x="352" y="196" width="190" height="18" rx="3" class="unk"/>
<text x="58" y="233" class="x">00010</text>
<rect data-cell="00010" data-mode="default" x="142" y="218" width="190" height="18" rx="3" class="unk"/>
<rect data-cell="00010" data-mode="reverse" x="352" y="218" width="190" height="18" rx="3" class="unk"/>
<text x="58" y="255" class="x">00011</text>
<rect data-cell="00011" data-mode="default" x="142" y="240" width="190" height="18" rx="3" class="unk"/>
<rect data-cell="00011" data-mode="reverse" x="352" y="240" width="190" height="18" rx="3" class="unk"/>
<text x="58" y="277" class="x">00100</text>
<rect data-cell="00100" data-mode="default" x="142" y="262" width="190" height="18" rx="3" class="unk"/>
<rect data-cell="00100" data-mode="reverse" x="352" y="262" width="190" height="18" rx="3" class="unk"/>
<text x="58" y="299" class="x">00101</text>
<rect data-cell="00101" data-mode="default" x="142" y="284" width="190" height="18" rx="3" class="unk"/>
<rect data-cell="00101" data-mode="reverse" x="352" y="284" width="190" height="18" rx="3" class="unk"/>
<text x="58" y="321" class="x">00110</text>
<rect data-cell="00110" data-mode="default" x="142" y="306" width="190" height="18" rx="3" class="unk"/>
<rect data-cell="00110" data-mode="reverse" x="352" y="306" width="190" height="18" rx="3" class="unk"/>
<text x="58" y="343" class="x">00111</text>
<rect data-cell="00111" data-mode="default" x="142" y="328" width="190" height="18" rx="3" class="unk"/>
<rect data-cell="00111" data-mode="reverse" x="352" y="328" width="190" height="18" rx="3" class="unk"/>
<text x="58" y="365" class="x">01000</text>
<rect data-cell="01000" data-mode="default" x="142" y="350" width="190" height="18" rx="3" class="unk"/>
<rect data-cell="01000" data-mode="reverse" x="352" y="350" width="190" height="18" rx="3" class="unk"/>
<text x="58" y="387" class="x">01001</text>
<rect data-cell="01001" data-mode="default" x="142" y="372" width="190" height="18" rx="3" class="unk"/>
<rect data-cell="01001" data-mode="reverse" x="352" y="372" width="190" height="18" rx="3" class="unk"/>
<text x="58" y="409" class="x">01010</text>
<rect data-cell="01010" data-mode="default" x="142" y="394" width="190" height="18" rx="3" class="unk"/>
<rect data-cell="01010" data-mode="reverse" x="352" y="394" width="190" height="18" rx="3" class="unk"/>
<text x="58" y="431" class="x">01011</text>
<rect data-cell="01011" data-mode="default" x="142" y="416" width="190" height="18" rx="3" class="unk"/>
<rect data-cell="01011" data-mode="reverse" x="352" y="416" width="190" height="18" rx="3" class="unk"/>
<text x="58" y="453" class="x">01100</text>
<rect data-cell="01100" data-mode="default" x="142" y="438" width="190" height="18" rx="3" class="unk"/>
<rect data-cell="01100" data-mode="reverse" x="352" y="438" width="190" height="18" rx="3" class="unk"/>
<text x="58" y="475" class="x">01101</text>
<rect data-cell="01101" data-mode="default" x="142" y="460" width="190" height="18" rx="3" class="unk"/>
<rect data-cell="01101" data-mode="reverse" x="352" y="460" width="190" height="18" rx="3" class="unk"/>
<text x="58" y="497" class="x">01110</text>
<rect data-cell="01110" data-mode="default" x="142" y="482" width="190" height="18" rx="3" class="unk"/>
<rect data-cell="01110" data-mode="reverse" x="352" y="482" width="190" height="18" rx="3" class="unk"/>
<text x="58" y="519" class="x">01111</text>
<rect data-cell="01111" data-mode="default" x="142" y="504" width="190" height="18" rx="3" class="unk"/>
<rect data-cell="01111" data-mode="reverse" x="352" y="504" width="190" height="18" rx="3" class="unk"/>
<text x="632" y="189" class="x">10000</text>
<rect data-cell="10000" data-mode="default" x="716" y="174" width="190" height="18" rx="3" class="unk"/>
<rect data-cell="10000" data-mode="reverse" x="926" y="174" width="190" height="18" rx="3" class="unk"/>
<text x="632" y="211" class="x">10001</text>
<rect data-cell="10001" data-mode="default" x="716" y="196" width="190" height="18" rx="3" class="unk"/>
<rect data-cell="10001" data-mode="reverse" x="926" y="196" width="190" height="18" rx="3" class="unk"/>
<text x="632" y="233" class="x">10010</text>
<rect data-cell="10010" data-mode="default" x="716" y="218" width="190" height="18" rx="3" class="unk"/>
<rect data-cell="10010" data-mode="reverse" x="926" y="218" width="190" height="18" rx="3" class="unk"/>
<text x="632" y="255" class="x">10011</text>
<rect data-cell="10011" data-mode="default" x="716" y="240" width="190" height="18" rx="3" class="unk"/>
<rect data-cell="10011" data-mode="reverse" x="926" y="240" width="190" height="18" rx="3" class="unk"/>
<text x="632" y="277" class="x">10100</text>
<rect data-cell="10100" data-mode="default" x="716" y="262" width="190" height="18" rx="3" class="unk"/>
<rect data-cell="10100" data-mode="reverse" x="926" y="262" width="190" height="18" rx="3" class="unk"/>
<text x="632" y="299" class="x">10101</text>
<rect data-cell="10101" data-mode="default" x="716" y="284" width="190" height="18" rx="3" class="unk"/>
<rect data-cell="10101" data-mode="reverse" x="926" y="284" width="190" height="18" rx="3" class="unk"/>
<text x="632" y="321" class="x">10110</text>
<rect data-cell="10110" data-mode="default" x="716" y="306" width="190" height="18" rx="3" class="unk"/>
<rect data-cell="10110" data-mode="reverse" x="926" y="306" width="190" height="18" rx="3" class="unk"/>
<text x="632" y="343" class="x">10111</text>
<rect data-cell="10111" data-mode="default" x="716" y="328" width="190" height="18" rx="3" class="unk"/>
<rect data-cell="10111" data-mode="reverse" x="926" y="328" width="190" height="18" rx="3" class="unk"/>
<text x="632" y="365" class="x">11000</text>
<rect data-cell="11000" data-mode="default" x="716" y="350" width="190" height="18" rx="3" class="unk"/>
<rect data-cell="11000" data-mode="reverse" x="926" y="350" width="190" height="18" rx="3" class="unk"/>
<text x="632" y="387" class="x">11001</text>
<rect data-cell="11001" data-mode="default" x="716" y="372" width="190" height="18" rx="3" class="unk"/>
<rect data-cell="11001" data-mode="reverse" x="926" y="372" width="190" height="18" rx="3" class="unk"/>
<text x="632" y="409" class="x">11010</text>
<rect data-cell="11010" data-mode="default" x="716" y="394" width="190" height="18" rx="3" class="unk"/>
<rect data-cell="11010" data-mode="reverse" x="926" y="394" width="190" height="18" rx="3" class="unk"/>
<text x="632" y="431" class="x">11011</text>
<rect data-cell="11011" data-mode="default" x="716" y="416" width="190" height="18" rx="3" class="unk"/>
<rect data-cell="11011" data-mode="reverse" x="926" y="416" width="190" height="18" rx="3" class="unk"/>
<text x="632" y="453" class="x">11100</text>
<rect data-cell="11100" data-mode="default" x="716" y="438" width="190" height="18" rx="3" class="unk"/>
<rect data-cell="11100" data-mode="reverse" x="926" y="438" width="190" height="18" rx="3" class="unk"/>
<text x="632" y="475" class="x">11101</text>
<rect data-cell="11101" data-mode="default" x="716" y="460" width="190" height="18" rx="3" class="unk"/>
<rect data-cell="11101" data-mode="reverse" x="926" y="460" width="190" height="18" rx="3" class="unk"/>
<text x="632" y="497" class="x">11110</text>
<rect data-cell="11110" data-mode="default" x="716" y="482" width="190" height="18" rx="3" class="unk"/>
<rect data-cell="11110" data-mode="reverse" x="926" y="482" width="190" height="18" rx="3" class="unk"/>
<text x="632" y="519" class="x">11111</text>
<rect data-cell="11111" data-mode="default" x="716" y="504" width="190" height="18" rx="3" class="unk"/>
<rect data-cell="11111" data-mode="reverse" x="926" y="504" width="190" height="18" rx="3" class="unk"/>
<text x="58" y="598" class="s">The robust known-positive order does not cross the complete A206 fixed-budget frontier.</text>
<text x="58" y="622" class="x">UNKNOWN is not UNSAT · exact retained observations only</text>
</svg>
