<?xml version="1.0" encoding="UTF-8"?>
<svg xmlns="http://www.w3.org/2000/svg" width="1240" height="820" viewBox="0 0 1240 820" role="img" aria-labelledby="title desc">
  <title id="title">A197 ChaCha10 width-12 complete-partition refinement boundary</title>
  <desc id="desc">A 16-by-16 map of all 256 width-12 cells in the complete round-10 refinement; every bounded result is UNKNOWN and no model is returned.</desc>
  <rect width="100%" height="100%" fill="#ffffff"/>
  <style>
    text { font-family: ui-monospace, SFMono-Regular, Menlo, Consolas, monospace; fill: #17202a; }
    .title { font-family: ui-sans-serif, system-ui, sans-serif; font-size: 26px; font-weight: 700; }
    .subtitle { font-family: ui-sans-serif, system-ui, sans-serif; font-size: 15px; fill: #43515d; }
    .label { font-size: 13px; }
    .small { font-size: 11px; fill: #43515d; }
    .value { font-size: 11px; font-weight: 700; }
  </style>
  <text x="36" y="43" class="title">A197 — complete width-12 partition refinement</text>
  <text x="36" y="70" class="subtitle">Same still-secret ChaCha10 challenge · 256 disjoint 2¹² cells · 64 numeric waves × 4 workers</text>
  <rect data-prefix="00000000" x="76" y="122" width="28" height="28" rx="2" fill="#d8dde3" stroke="#667788"/>
  <rect data-prefix="00000001" x="107" y="122" width="28" height="28" rx="2" fill="#d8dde3" stroke="#667788"/>
  <rect data-prefix="00000010" x="138" y="122" width="28" height="28" rx="2" fill="#d8dde3" stroke="#667788"/>
  <rect data-prefix="00000011" x="169" y="122" width="28" height="28" rx="2" fill="#d8dde3" stroke="#667788"/>
  <rect data-prefix="00000100" x="200" y="122" width="28" height="28" rx="2" fill="#d8dde3" stroke="#667788"/>
  <rect data-prefix="00000101" x="231" y="122" width="28" height="28" rx="2" fill="#d8dde3" stroke="#667788"/>
  <rect data-prefix="00000110" x="262" y="122" width="28" height="28" rx="2" fill="#d8dde3" stroke="#667788"/>
  <rect data-prefix="00000111" x="293" y="122" width="28" height="28" rx="2" fill="#d8dde3" stroke="#667788"/>
  <rect data-prefix="00001000" x="324" y="122" width="28" height="28" rx="2" fill="#d8dde3" stroke="#667788"/>
  <rect data-prefix="00001001" x="355" y="122" width="28" height="28" rx="2" fill="#d8dde3" stroke="#667788"/>
  <rect data-prefix="00001010" x="386" y="122" width="28" height="28" rx="2" fill="#d8dde3" stroke="#667788"/>
  <rect data-prefix="00001011" x="417" y="122" width="28" height="28" rx="2" fill="#d8dde3" stroke="#667788"/>
  <rect data-prefix="00001100" x="448" y="122" width="28" height="28" rx="2" fill="#d8dde3" stroke="#667788"/>
  <rect data-prefix="00001101" x="479" y="122" width="28" height="28" rx="2" fill="#d8dde3" stroke="#667788"/>
  <rect data-prefix="00001110" x="510" y="122" width="28" height="28" rx="2" fill="#d8dde3" stroke="#667788"/>
  <rect data-prefix="00001111" x="541" y="122" width="28" height="28" rx="2" fill="#d8dde3" stroke="#667788"/>
  <rect data-prefix="00010000" x="76" y="153" width="28" height="28" rx="2" fill="#d8dde3" stroke="#667788"/>
  <rect data-prefix="00010001" x="107" y="153" width="28" height="28" rx="2" fill="#d8dde3" stroke="#667788"/>
  <rect data-prefix="00010010" x="138" y="153" width="28" height="28" rx="2" fill="#d8dde3" stroke="#667788"/>
  <rect data-prefix="00010011" x="169" y="153" width="28" height="28" rx="2" fill="#d8dde3" stroke="#667788"/>
  <rect data-prefix="00010100" x="200" y="153" width="28" height="28" rx="2" fill="#d8dde3" stroke="#667788"/>
  <rect data-prefix="00010101" x="231" y="153" width="28" height="28" rx="2" fill="#d8dde3" stroke="#667788"/>
  <rect data-prefix="00010110" x="262" y="153" width="28" height="28" rx="2" fill="#d8dde3" stroke="#667788"/>
  <rect data-prefix="00010111" x="293" y="153" width="28" height="28" rx="2" fill="#d8dde3" stroke="#667788"/>
  <rect data-prefix="00011000" x="324" y="153" width="28" height="28" rx="2" fill="#d8dde3" stroke="#667788"/>
  <rect data-prefix="00011001" x="355" y="153" width="28" height="28" rx="2" fill="#d8dde3" stroke="#667788"/>
  <rect data-prefix="00011010" x="386" y="153" width="28" height="28" rx="2" fill="#d8dde3" stroke="#667788"/>
  <rect data-prefix="00011011" x="417" y="153" width="28" height="28" rx="2" fill="#d8dde3" stroke="#667788"/>
  <rect data-prefix="00011100" x="448" y="153" width="28" height="28" rx="2" fill="#d8dde3" stroke="#667788"/>
  <rect data-prefix="00011101" x="479" y="153" width="28" height="28" rx="2" fill="#d8dde3" stroke="#667788"/>
  <rect data-prefix="00011110" x="510" y="153" width="28" height="28" rx="2" fill="#d8dde3" stroke="#667788"/>
  <rect data-prefix="00011111" x="541" y="153" width="28" height="28" rx="2" fill="#d8dde3" stroke="#667788"/>
  <rect data-prefix="00100000" x="76" y="184" width="28" height="28" rx="2" fill="#d8dde3" stroke="#667788"/>
  <rect data-prefix="00100001" x="107" y="184" width="28" height="28" rx="2" fill="#d8dde3" stroke="#667788"/>
  <rect data-prefix="00100010" x="138" y="184" width="28" height="28" rx="2" fill="#d8dde3" stroke="#667788"/>
  <rect data-prefix="00100011" x="169" y="184" width="28" height="28" rx="2" fill="#d8dde3" stroke="#667788"/>
  <rect data-prefix="00100100" x="200" y="184" width="28" height="28" rx="2" fill="#d8dde3" stroke="#667788"/>
  <rect data-prefix="00100101" x="231" y="184" width="28" height="28" rx="2" fill="#d8dde3" stroke="#667788"/>
  <rect data-prefix="00100110" x="262" y="184" width="28" height="28" rx="2" fill="#d8dde3" stroke="#667788"/>
  <rect data-prefix="00100111" x="293" y="184" width="28" height="28" rx="2" fill="#d8dde3" stroke="#667788"/>
  <rect data-prefix="00101000" x="324" y="184" width="28" height="28" rx="2" fill="#d8dde3" stroke="#667788"/>
  <rect data-prefix="00101001" x="355" y="184" width="28" height="28" rx="2" fill="#d8dde3" stroke="#667788"/>
  <rect data-prefix="00101010" x="386" y="184" width="28" height="28" rx="2" fill="#d8dde3" stroke="#667788"/>
  <rect data-prefix="00101011" x="417" y="184" width="28" height="28" rx="2" fill="#d8dde3" stroke="#667788"/>
  <rect data-prefix="00101100" x="448" y="184" width="28" height="28" rx="2" fill="#d8dde3" stroke="#667788"/>
  <rect data-prefix="00101101" x="479" y="184" width="28" height="28" rx="2" fill="#d8dde3" stroke="#667788"/>
  <rect data-prefix="00101110" x="510" y="184" width="28" height="28" rx="2" fill="#d8dde3" stroke="#667788"/>
  <rect data-prefix="00101111" x="541" y="184" width="28" height="28" rx="2" fill="#d8dde3" stroke="#667788"/>
  <rect data-prefix="00110000" x="76" y="215" width="28" height="28" rx="2" fill="#d8dde3" stroke="#667788"/>
  <rect data-prefix="00110001" x="107" y="215" width="28" height="28" rx="2" fill="#d8dde3" stroke="#667788"/>
  <rect data-prefix="00110010" x="138" y="215" width="28" height="28" rx="2" fill="#d8dde3" stroke="#667788"/>
  <rect data-prefix="00110011" x="169" y="215" width="28" height="28" rx="2" fill="#d8dde3" stroke="#667788"/>
  <rect data-prefix="00110100" x="200" y="215" width="28" height="28" rx="2" fill="#d8dde3" stroke="#667788"/>
  <rect data-prefix="00110101" x="231" y="215" width="28" height="28" rx="2" fill="#d8dde3" stroke="#667788"/>
  <rect data-prefix="00110110" x="262" y="215" width="28" height="28" rx="2" fill="#d8dde3" stroke="#667788"/>
  <rect data-prefix="00110111" x="293" y="215" width="28" height="28" rx="2" fill="#d8dde3" stroke="#667788"/>
  <rect data-prefix="00111000" x="324" y="215" width="28" height="28" rx="2" fill="#d8dde3" stroke="#667788"/>
  <rect data-prefix="00111001" x="355" y="215" width="28" height="28" rx="2" fill="#d8dde3" stroke="#667788"/>
  <rect data-prefix="00111010" x="386" y="215" width="28" height="28" rx="2" fill="#d8dde3" stroke="#667788"/>
  <rect data-prefix="00111011" x="417" y="215" width="28" height="28" rx="2" fill="#d8dde3" stroke="#667788"/>
  <rect data-prefix="00111100" x="448" y="215" width="28" height="28" rx="2" fill="#d8dde3" stroke="#667788"/>
  <rect data-prefix="00111101" x="479" y="215" width="28" height="28" rx="2" fill="#d8dde3" stroke="#667788"/>
  <rect data-prefix="00111110" x="510" y="215" width="28" height="28" rx="2" fill="#d8dde3" stroke="#667788"/>
  <rect data-prefix="00111111" x="541" y="215" width="28" height="28" rx="2" fill="#d8dde3" stroke="#667788"/>
  <rect data-prefix="01000000" x="76" y="246" width="28" height="28" rx="2" fill="#d8dde3" stroke="#667788"/>
  <rect data-prefix="01000001" x="107" y="246" width="28" height="28" rx="2" fill="#d8dde3" stroke="#667788"/>
  <rect data-prefix="01000010" x="138" y="246" width="28" height="28" rx="2" fill="#d8dde3" stroke="#667788"/>
  <rect data-prefix="01000011" x="169" y="246" width="28" height="28" rx="2" fill="#d8dde3" stroke="#667788"/>
  <rect data-prefix="01000100" x="200" y="246" width="28" height="28" rx="2" fill="#d8dde3" stroke="#667788"/>
  <rect data-prefix="01000101" x="231" y="246" width="28" height="28" rx="2" fill="#d8dde3" stroke="#667788"/>
  <rect data-prefix="01000110" x="262" y="246" width="28" height="28" rx="2" fill="#d8dde3" stroke="#667788"/>
  <rect data-prefix="01000111" x="293" y="246" width="28" height="28" rx="2" fill="#d8dde3" stroke="#667788"/>
  <rect data-prefix="01001000" x="324" y="246" width="28" height="28" rx="2" fill="#d8dde3" stroke="#667788"/>
  <rect data-prefix="01001001" x="355" y="246" width="28" height="28" rx="2" fill="#d8dde3" stroke="#667788"/>
  <rect data-prefix="01001010" x="386" y="246" width="28" height="28" rx="2" fill="#d8dde3" stroke="#667788"/>
  <rect data-prefix="01001011" x="417" y="246" width="28" height="28" rx="2" fill="#d8dde3" stroke="#667788"/>
  <rect data-prefix="01001100" x="448" y="246" width="28" height="28" rx="2" fill="#d8dde3" stroke="#667788"/>
  <rect data-prefix="01001101" x="479" y="246" width="28" height="28" rx="2" fill="#d8dde3" stroke="#667788"/>
  <rect data-prefix="01001110" x="510" y="246" width="28" height="28" rx="2" fill="#d8dde3" stroke="#667788"/>
  <rect data-prefix="01001111" x="541" y="246" width="28" height="28" rx="2" fill="#d8dde3" stroke="#667788"/>
  <rect data-prefix="01010000" x="76" y="277" width="28" height="28" rx="2" fill="#d8dde3" stroke="#667788"/>
  <rect data-prefix="01010001" x="107" y="277" width="28" height="28" rx="2" fill="#d8dde3" stroke="#667788"/>
  <rect data-prefix="01010010" x="138" y="277" width="28" height="28" rx="2" fill="#d8dde3" stroke="#667788"/>
  <rect data-prefix="01010011" x="169" y="277" width="28" height="28" rx="2" fill="#d8dde3" stroke="#667788"/>
  <rect data-prefix="01010100" x="200" y="277" width="28" height="28" rx="2" fill="#d8dde3" stroke="#667788"/>
  <rect data-prefix="01010101" x="231" y="277" width="28" height="28" rx="2" fill="#d8dde3" stroke="#667788"/>
  <rect data-prefix="01010110" x="262" y="277" width="28" height="28" rx="2" fill="#d8dde3" stroke="#667788"/>
  <rect data-prefix="01010111" x="293" y="277" width="28" height="28" rx="2" fill="#d8dde3" stroke="#667788"/>
  <rect data-prefix="01011000" x="324" y="277" width="28" height="28" rx="2" fill="#d8dde3" stroke="#667788"/>
  <rect data-prefix="01011001" x="355" y="277" width="28" height="28" rx="2" fill="#d8dde3" stroke="#667788"/>
  <rect data-prefix="01011010" x="386" y="277" width="28" height="28" rx="2" fill="#d8dde3" stroke="#667788"/>
  <rect data-prefix="01011011" x="417" y="277" width="28" height="28" rx="2" fill="#d8dde3" stroke="#667788"/>
  <rect data-prefix="01011100" x="448" y="277" width="28" height="28" rx="2" fill="#d8dde3" stroke="#667788"/>
  <rect data-prefix="01011101" x="479" y="277" width="28" height="28" rx="2" fill="#d8dde3" stroke="#667788"/>
  <rect data-prefix="01011110" x="510" y="277" width="28" height="28" rx="2" fill="#d8dde3" stroke="#667788"/>
  <rect data-prefix="01011111" x="541" y="277" width="28" height="28" rx="2" fill="#d8dde3" stroke="#667788"/>
  <rect data-prefix="01100000" x="76" y="308" width="28" height="28" rx="2" fill="#d8dde3" stroke="#667788"/>
  <rect data-prefix="01100001" x="107" y="308" width="28" height="28" rx="2" fill="#d8dde3" stroke="#667788"/>
  <rect data-prefix="01100010" x="138" y="308" width="28" height="28" rx="2" fill="#d8dde3" stroke="#667788"/>
  <rect data-prefix="01100011" x="169" y="308" width="28" height="28" rx="2" fill="#d8dde3" stroke="#667788"/>
  <rect data-prefix="01100100" x="200" y="308" width="28" height="28" rx="2" fill="#d8dde3" stroke="#667788"/>
  <rect data-prefix="01100101" x="231" y="308" width="28" height="28" rx="2" fill="#d8dde3" stroke="#667788"/>
  <rect data-prefix="01100110" x="262" y="308" width="28" height="28" rx="2" fill="#d8dde3" stroke="#667788"/>
  <rect data-prefix="01100111" x="293" y="308" width="28" height="28" rx="2" fill="#d8dde3" stroke="#667788"/>
  <rect data-prefix="01101000" x="324" y="308" width="28" height="28" rx="2" fill="#d8dde3" stroke="#667788"/>
  <rect data-prefix="01101001" x="355" y="308" width="28" height="28" rx="2" fill="#d8dde3" stroke="#667788"/>
  <rect data-prefix="01101010" x="386" y="308" width="28" height="28" rx="2" fill="#d8dde3" stroke="#667788"/>
  <rect data-prefix="01101011" x="417" y="308" width="28" height="28" rx="2" fill="#d8dde3" stroke="#667788"/>
  <rect data-prefix="01101100" x="448" y="308" width="28" height="28" rx="2" fill="#d8dde3" stroke="#667788"/>
  <rect data-prefix="01101101" x="479" y="308" width="28" height="28" rx="2" fill="#d8dde3" stroke="#667788"/>
  <rect data-prefix="01101110" x="510" y="308" width="28" height="28" rx="2" fill="#d8dde3" stroke="#667788"/>
  <rect data-prefix="01101111" x="541" y="308" width="28" height="28" rx="2" fill="#d8dde3" stroke="#667788"/>
  <rect data-prefix="01110000" x="76" y="339" width="28" height="28" rx="2" fill="#d8dde3" stroke="#667788"/>
  <rect data-prefix="01110001" x="107" y="339" width="28" height="28" rx="2" fill="#d8dde3" stroke="#667788"/>
  <rect data-prefix="01110010" x="138" y="339" width="28" height="28" rx="2" fill="#d8dde3" stroke="#667788"/>
  <rect data-prefix="01110011" x="169" y="339" width="28" height="28" rx="2" fill="#d8dde3" stroke="#667788"/>
  <rect data-prefix="01110100" x="200" y="339" width="28" height="28" rx="2" fill="#d8dde3" stroke="#667788"/>
  <rect data-prefix="01110101" x="231" y="339" width="28" height="28" rx="2" fill="#d8dde3" stroke="#667788"/>
  <rect data-prefix="01110110" x="262" y="339" width="28" height="28" rx="2" fill="#d8dde3" stroke="#667788"/>
  <rect data-prefix="01110111" x="293" y="339" width="28" height="28" rx="2" fill="#d8dde3" stroke="#667788"/>
  <rect data-prefix="01111000" x="324" y="339" width="28" height="28" rx="2" fill="#d8dde3" stroke="#667788"/>
  <rect data-prefix="01111001" x="355" y="339" width="28" height="28" rx="2" fill="#d8dde3" stroke="#667788"/>
  <rect data-prefix="01111010" x="386" y="339" width="28" height="28" rx="2" fill="#d8dde3" stroke="#667788"/>
  <rect data-prefix="01111011" x="417" y="339" width="28" height="28" rx="2" fill="#d8dde3" stroke="#667788"/>
  <rect data-prefix="01111100" x="448" y="339" width="28" height="28" rx="2" fill="#d8dde3" stroke="#667788"/>
  <rect data-prefix="01111101" x="479" y="339" width="28" height="28" rx="2" fill="#d8dde3" stroke="#667788"/>
  <rect data-prefix="01111110" x="510" y="339" width="28" height="28" rx="2" fill="#d8dde3" stroke="#667788"/>
  <rect data-prefix="01111111" x="541" y="339" width="28" height="28" rx="2" fill="#d8dde3" stroke="#667788"/>
  <rect data-prefix="10000000" x="76" y="370" width="28" height="28" rx="2" fill="#d8dde3" stroke="#667788"/>
  <rect data-prefix="10000001" x="107" y="370" width="28" height="28" rx="2" fill="#d8dde3" stroke="#667788"/>
  <rect data-prefix="10000010" x="138" y="370" width="28" height="28" rx="2" fill="#d8dde3" stroke="#667788"/>
  <rect data-prefix="10000011" x="169" y="370" width="28" height="28" rx="2" fill="#d8dde3" stroke="#667788"/>
  <rect data-prefix="10000100" x="200" y="370" width="28" height="28" rx="2" fill="#d8dde3" stroke="#667788"/>
  <rect data-prefix="10000101" x="231" y="370" width="28" height="28" rx="2" fill="#d8dde3" stroke="#667788"/>
  <rect data-prefix="10000110" x="262" y="370" width="28" height="28" rx="2" fill="#d8dde3" stroke="#667788"/>
  <rect data-prefix="10000111" x="293" y="370" width="28" height="28" rx="2" fill="#d8dde3" stroke="#667788"/>
  <rect data-prefix="10001000" x="324" y="370" width="28" height="28" rx="2" fill="#d8dde3" stroke="#667788"/>
  <rect data-prefix="10001001" x="355" y="370" width="28" height="28" rx="2" fill="#d8dde3" stroke="#667788"/>
  <rect data-prefix="10001010" x="386" y="370" width="28" height="28" rx="2" fill="#d8dde3" stroke="#667788"/>
  <rect data-prefix="10001011" x="417" y="370" width="28" height="28" rx="2" fill="#d8dde3" stroke="#667788"/>
  <rect data-prefix="10001100" x="448" y="370" width="28" height="28" rx="2" fill="#d8dde3" stroke="#667788"/>
  <rect data-prefix="10001101" x="479" y="370" width="28" height="28" rx="2" fill="#d8dde3" stroke="#667788"/>
  <rect data-prefix="10001110" x="510" y="370" width="28" height="28" rx="2" fill="#d8dde3" stroke="#667788"/>
  <rect data-prefix="10001111" x="541" y="370" width="28" height="28" rx="2" fill="#d8dde3" stroke="#667788"/>
  <rect data-prefix="10010000" x="76" y="401" width="28" height="28" rx="2" fill="#d8dde3" stroke="#667788"/>
  <rect data-prefix="10010001" x="107" y="401" width="28" height="28" rx="2" fill="#d8dde3" stroke="#667788"/>
  <rect data-prefix="10010010" x="138" y="401" width="28" height="28" rx="2" fill="#d8dde3" stroke="#667788"/>
  <rect data-prefix="10010011" x="169" y="401" width="28" height="28" rx="2" fill="#d8dde3" stroke="#667788"/>
  <rect data-prefix="10010100" x="200" y="401" width="28" height="28" rx="2" fill="#d8dde3" stroke="#667788"/>
  <rect data-prefix="10010101" x="231" y="401" width="28" height="28" rx="2" fill="#d8dde3" stroke="#667788"/>
  <rect data-prefix="10010110" x="262" y="401" width="28" height="28" rx="2" fill="#d8dde3" stroke="#667788"/>
  <rect data-prefix="10010111" x="293" y="401" width="28" height="28" rx="2" fill="#d8dde3" stroke="#667788"/>
  <rect data-prefix="10011000" x="324" y="401" width="28" height="28" rx="2" fill="#d8dde3" stroke="#667788"/>
  <rect data-prefix="10011001" x="355" y="401" width="28" height="28" rx="2" fill="#d8dde3" stroke="#667788"/>
  <rect data-prefix="10011010" x="386" y="401" width="28" height="28" rx="2" fill="#d8dde3" stroke="#667788"/>
  <rect data-prefix="10011011" x="417" y="401" width="28" height="28" rx="2" fill="#d8dde3" stroke="#667788"/>
  <rect data-prefix="10011100" x="448" y="401" width="28" height="28" rx="2" fill="#d8dde3" stroke="#667788"/>
  <rect data-prefix="10011101" x="479" y="401" width="28" height="28" rx="2" fill="#d8dde3" stroke="#667788"/>
  <rect data-prefix="10011110" x="510" y="401" width="28" height="28" rx="2" fill="#d8dde3" stroke="#667788"/>
  <rect data-prefix="10011111" x="541" y="401" width="28" height="28" rx="2" fill="#d8dde3" stroke="#667788"/>
  <rect data-prefix="10100000" x="76" y="432" width="28" height="28" rx="2" fill="#d8dde3" stroke="#667788"/>
  <rect data-prefix="10100001" x="107" y="432" width="28" height="28" rx="2" fill="#d8dde3" stroke="#667788"/>
  <rect data-prefix="10100010" x="138" y="432" width="28" height="28" rx="2" fill="#d8dde3" stroke="#667788"/>
  <rect data-prefix="10100011" x="169" y="432" width="28" height="28" rx="2" fill="#d8dde3" stroke="#667788"/>
  <rect data-prefix="10100100" x="200" y="432" width="28" height="28" rx="2" fill="#d8dde3" stroke="#667788"/>
  <rect data-prefix="10100101" x="231" y="432" width="28" height="28" rx="2" fill="#d8dde3" stroke="#667788"/>
  <rect data-prefix="10100110" x="262" y="432" width="28" height="28" rx="2" fill="#d8dde3" stroke="#667788"/>
  <rect data-prefix="10100111" x="293" y="432" width="28" height="28" rx="2" fill="#d8dde3" stroke="#667788"/>
  <rect data-prefix="10101000" x="324" y="432" width="28" height="28" rx="2" fill="#d8dde3" stroke="#667788"/>
  <rect data-prefix="10101001" x="355" y="432" width="28" height="28" rx="2" fill="#d8dde3" stroke="#667788"/>
  <rect data-prefix="10101010" x="386" y="432" width="28" height="28" rx="2" fill="#d8dde3" stroke="#667788"/>
  <rect data-prefix="10101011" x="417" y="432" width="28" height="28" rx="2" fill="#d8dde3" stroke="#667788"/>
  <rect data-prefix="10101100" x="448" y="432" width="28" height="28" rx="2" fill="#d8dde3" stroke="#667788"/>
  <rect data-prefix="10101101" x="479" y="432" width="28" height="28" rx="2" fill="#d8dde3" stroke="#667788"/>
  <rect data-prefix="10101110" x="510" y="432" width="28" height="28" rx="2" fill="#d8dde3" stroke="#667788"/>
  <rect data-prefix="10101111" x="541" y="432" width="28" height="28" rx="2" fill="#d8dde3" stroke="#667788"/>
  <rect data-prefix="10110000" x="76" y="463" width="28" height="28" rx="2" fill="#d8dde3" stroke="#667788"/>
  <rect data-prefix="10110001" x="107" y="463" width="28" height="28" rx="2" fill="#d8dde3" stroke="#667788"/>
  <rect data-prefix="10110010" x="138" y="463" width="28" height="28" rx="2" fill="#d8dde3" stroke="#667788"/>
  <rect data-prefix="10110011" x="169" y="463" width="28" height="28" rx="2" fill="#d8dde3" stroke="#667788"/>
  <rect data-prefix="10110100" x="200" y="463" width="28" height="28" rx="2" fill="#d8dde3" stroke="#667788"/>
  <rect data-prefix="10110101" x="231" y="463" width="28" height="28" rx="2" fill="#d8dde3" stroke="#667788"/>
  <rect data-prefix="10110110" x="262" y="463" width="28" height="28" rx="2" fill="#d8dde3" stroke="#667788"/>
  <rect data-prefix="10110111" x="293" y="463" width="28" height="28" rx="2" fill="#d8dde3" stroke="#667788"/>
  <rect data-prefix="10111000" x="324" y="463" width="28" height="28" rx="2" fill="#d8dde3" stroke="#667788"/>
  <rect data-prefix="10111001" x="355" y="463" width="28" height="28" rx="2" fill="#d8dde3" stroke="#667788"/>
  <rect data-prefix="10111010" x="386" y="463" width="28" height="28" rx="2" fill="#d8dde3" stroke="#667788"/>
  <rect data-prefix="10111011" x="417" y="463" width="28" height="28" rx="2" fill="#d8dde3" stroke="#667788"/>
  <rect data-prefix="10111100" x="448" y="463" width="28" height="28" rx="2" fill="#d8dde3" stroke="#667788"/>
  <rect data-prefix="10111101" x="479" y="463" width="28" height="28" rx="2" fill="#d8dde3" stroke="#667788"/>
  <rect data-prefix="10111110" x="510" y="463" width="28" height="28" rx="2" fill="#d8dde3" stroke="#667788"/>
  <rect data-prefix="10111111" x="541" y="463" width="28" height="28" rx="2" fill="#d8dde3" stroke="#667788"/>
  <rect data-prefix="11000000" x="76" y="494" width="28" height="28" rx="2" fill="#d8dde3" stroke="#667788"/>
  <rect data-prefix="11000001" x="107" y="494" width="28" height="28" rx="2" fill="#d8dde3" stroke="#667788"/>
  <rect data-prefix="11000010" x="138" y="494" width="28" height="28" rx="2" fill="#d8dde3" stroke="#667788"/>
  <rect data-prefix="11000011" x="169" y="494" width="28" height="28" rx="2" fill="#d8dde3" stroke="#667788"/>
  <rect data-prefix="11000100" x="200" y="494" width="28" height="28" rx="2" fill="#d8dde3" stroke="#667788"/>
  <rect data-prefix="11000101" x="231" y="494" width="28" height="28" rx="2" fill="#d8dde3" stroke="#667788"/>
  <rect data-prefix="11000110" x="262" y="494" width="28" height="28" rx="2" fill="#d8dde3" stroke="#667788"/>
  <rect data-prefix="11000111" x="293" y="494" width="28" height="28" rx="2" fill="#d8dde3" stroke="#667788"/>
  <rect data-prefix="11001000" x="324" y="494" width="28" height="28" rx="2" fill="#d8dde3" stroke="#667788"/>
  <rect data-prefix="11001001" x="355" y="494" width="28" height="28" rx="2" fill="#d8dde3" stroke="#667788"/>
  <rect data-prefix="11001010" x="386" y="494" width="28" height="28" rx="2" fill="#d8dde3" stroke="#667788"/>
  <rect data-prefix="11001011" x="417" y="494" width="28" height="28" rx="2" fill="#d8dde3" stroke="#667788"/>
  <rect data-prefix="11001100" x="448" y="494" width="28" height="28" rx="2" fill="#d8dde3" stroke="#667788"/>
  <rect data-prefix="11001101" x="479" y="494" width="28" height="28" rx="2" fill="#d8dde3" stroke="#667788"/>
  <rect data-prefix="11001110" x="510" y="494" width="28" height="28" rx="2" fill="#d8dde3" stroke="#667788"/>
  <rect data-prefix="11001111" x="541" y="494" width="28" height="28" rx="2" fill="#d8dde3" stroke="#667788"/>
  <rect data-prefix="11010000" x="76" y="525" width="28" height="28" rx="2" fill="#d8dde3" stroke="#667788"/>
  <rect data-prefix="11010001" x="107" y="525" width="28" height="28" rx="2" fill="#d8dde3" stroke="#667788"/>
  <rect data-prefix="11010010" x="138" y="525" width="28" height="28" rx="2" fill="#d8dde3" stroke="#667788"/>
  <rect data-prefix="11010011" x="169" y="525" width="28" height="28" rx="2" fill="#d8dde3" stroke="#667788"/>
  <rect data-prefix="11010100" x="200" y="525" width="28" height="28" rx="2" fill="#d8dde3" stroke="#667788"/>
  <rect data-prefix="11010101" x="231" y="525" width="28" height="28" rx="2" fill="#d8dde3" stroke="#667788"/>
  <rect data-prefix="11010110" x="262" y="525" width="28" height="28" rx="2" fill="#d8dde3" stroke="#667788"/>
  <rect data-prefix="11010111" x="293" y="525" width="28" height="28" rx="2" fill="#d8dde3" stroke="#667788"/>
  <rect data-prefix="11011000" x="324" y="525" width="28" height="28" rx="2" fill="#d8dde3" stroke="#667788"/>
  <rect data-prefix="11011001" x="355" y="525" width="28" height="28" rx="2" fill="#d8dde3" stroke="#667788"/>
  <rect data-prefix="11011010" x="386" y="525" width="28" height="28" rx="2" fill="#d8dde3" stroke="#667788"/>
  <rect data-prefix="11011011" x="417" y="525" width="28" height="28" rx="2" fill="#d8dde3" stroke="#667788"/>
  <rect data-prefix="11011100" x="448" y="525" width="28" height="28" rx="2" fill="#d8dde3" stroke="#667788"/>
  <rect data-prefix="11011101" x="479" y="525" width="28" height="28" rx="2" fill="#d8dde3" stroke="#667788"/>
  <rect data-prefix="11011110" x="510" y="525" width="28" height="28" rx="2" fill="#d8dde3" stroke="#667788"/>
  <rect data-prefix="11011111" x="541" y="525" width="28" height="28" rx="2" fill="#d8dde3" stroke="#667788"/>
  <rect data-prefix="11100000" x="76" y="556" width="28" height="28" rx="2" fill="#d8dde3" stroke="#667788"/>
  <rect data-prefix="11100001" x="107" y="556" width="28" height="28" rx="2" fill="#d8dde3" stroke="#667788"/>
  <rect data-prefix="11100010" x="138" y="556" width="28" height="28" rx="2" fill="#d8dde3" stroke="#667788"/>
  <rect data-prefix="11100011" x="169" y="556" width="28" height="28" rx="2" fill="#d8dde3" stroke="#667788"/>
  <rect data-prefix="11100100" x="200" y="556" width="28" height="28" rx="2" fill="#d8dde3" stroke="#667788"/>
  <rect data-prefix="11100101" x="231" y="556" width="28" height="28" rx="2" fill="#d8dde3" stroke="#667788"/>
  <rect data-prefix="11100110" x="262" y="556" width="28" height="28" rx="2" fill="#d8dde3" stroke="#667788"/>
  <rect data-prefix="11100111" x="293" y="556" width="28" height="28" rx="2" fill="#d8dde3" stroke="#667788"/>
  <rect data-prefix="11101000" x="324" y="556" width="28" height="28" rx="2" fill="#d8dde3" stroke="#667788"/>
  <rect data-prefix="11101001" x="355" y="556" width="28" height="28" rx="2" fill="#d8dde3" stroke="#667788"/>
  <rect data-prefix="11101010" x="386" y="556" width="28" height="28" rx="2" fill="#d8dde3" stroke="#667788"/>
  <rect data-prefix="11101011" x="417" y="556" width="28" height="28" rx="2" fill="#d8dde3" stroke="#667788"/>
  <rect data-prefix="11101100" x="448" y="556" width="28" height="28" rx="2" fill="#d8dde3" stroke="#667788"/>
  <rect data-prefix="11101101" x="479" y="556" width="28" height="28" rx="2" fill="#d8dde3" stroke="#667788"/>
  <rect data-prefix="11101110" x="510" y="556" width="28" height="28" rx="2" fill="#d8dde3" stroke="#667788"/>
  <rect data-prefix="11101111" x="541" y="556" width="28" height="28" rx="2" fill="#d8dde3" stroke="#667788"/>
  <rect data-prefix="11110000" x="76" y="587" width="28" height="28" rx="2" fill="#d8dde3" stroke="#667788"/>
  <rect data-prefix="11110001" x="107" y="587" width="28" height="28" rx="2" fill="#d8dde3" stroke="#667788"/>
  <rect data-prefix="11110010" x="138" y="587" width="28" height="28" rx="2" fill="#d8dde3" stroke="#667788"/>
  <rect data-prefix="11110011" x="169" y="587" width="28" height="28" rx="2" fill="#d8dde3" stroke="#667788"/>
  <rect data-prefix="11110100" x="200" y="587" width="28" height="28" rx="2" fill="#d8dde3" stroke="#667788"/>
  <rect data-prefix="11110101" x="231" y="587" width="28" height="28" rx="2" fill="#d8dde3" stroke="#667788"/>
  <rect data-prefix="11110110" x="262" y="587" width="28" height="28" rx="2" fill="#d8dde3" stroke="#667788"/>
  <rect data-prefix="11110111" x="293" y="587" width="28" height="28" rx="2" fill="#d8dde3" stroke="#667788"/>
  <rect data-prefix="11111000" x="324" y="587" width="28" height="28" rx="2" fill="#d8dde3" stroke="#667788"/>
  <rect data-prefix="11111001" x="355" y="587" width="28" height="28" rx="2" fill="#d8dde3" stroke="#667788"/>
  <rect data-prefix="11111010" x="386" y="587" width="28" height="28" rx="2" fill="#d8dde3" stroke="#667788"/>
  <rect data-prefix="11111011" x="417" y="587" width="28" height="28" rx="2" fill="#d8dde3" stroke="#667788"/>
  <rect data-prefix="11111100" x="448" y="587" width="28" height="28" rx="2" fill="#d8dde3" stroke="#667788"/>
  <rect data-prefix="11111101" x="479" y="587" width="28" height="28" rx="2" fill="#d8dde3" stroke="#667788"/>
  <rect data-prefix="11111110" x="510" y="587" width="28" height="28" rx="2" fill="#d8dde3" stroke="#667788"/>
  <rect data-prefix="11111111" x="541" y="587" width="28" height="28" rx="2" fill="#d8dde3" stroke="#667788"/>
  <text x="90.0" y="108" text-anchor="middle" class="small">0</text>
  <text x="56" y="140.0" text-anchor="middle" class="small">0</text>
  <text x="121.0" y="108" text-anchor="middle" class="small">1</text>
  <text x="56" y="171.0" text-anchor="middle" class="small">1</text>
  <text x="152.0" y="108" text-anchor="middle" class="small">2</text>
  <text x="56" y="202.0" text-anchor="middle" class="small">2</text>
  <text x="183.0" y="108" text-anchor="middle" class="small">3</text>
  <text x="56" y="233.0" text-anchor="middle" class="small">3</text>
  <text x="214.0" y="108" text-anchor="middle" class="small">4</text>
  <text x="56" y="264.0" text-anchor="middle" class="small">4</text>
  <text x="245.0" y="108" text-anchor="middle" class="small">5</text>
  <text x="56" y="295.0" text-anchor="middle" class="small">5</text>
  <text x="276.0" y="108" text-anchor="middle" class="small">6</text>
  <text x="56" y="326.0" text-anchor="middle" class="small">6</text>
  <text x="307.0" y="108" text-anchor="middle" class="small">7</text>
  <text x="56" y="357.0" text-anchor="middle" class="small">7</text>
  <text x="338.0" y="108" text-anchor="middle" class="small">8</text>
  <text x="56" y="388.0" text-anchor="middle" class="small">8</text>
  <text x="369.0" y="108" text-anchor="middle" class="small">9</text>
  <text x="56" y="419.0" text-anchor="middle" class="small">9</text>
  <text x="400.0" y="108" text-anchor="middle" class="small">A</text>
  <text x="56" y="450.0" text-anchor="middle" class="small">A</text>
  <text x="431.0" y="108" text-anchor="middle" class="small">B</text>
  <text x="56" y="481.0" text-anchor="middle" class="small">B</text>
  <text x="462.0" y="108" text-anchor="middle" class="small">C</text>
  <text x="56" y="512.0" text-anchor="middle" class="small">C</text>
  <text x="493.0" y="108" text-anchor="middle" class="small">D</text>
  <text x="56" y="543.0" text-anchor="middle" class="small">D</text>
  <text x="524.0" y="108" text-anchor="middle" class="small">E</text>
  <text x="56" y="574.0" text-anchor="middle" class="small">E</text>
  <text x="555.0" y="108" text-anchor="middle" class="small">F</text>
  <text x="56" y="605.0" text-anchor="middle" class="small">F</text>
  <text x="324" y="646" text-anchor="middle" class="subtitle">high-prefix byte: row nibble × column nibble</text>
  <rect x="618" y="112" width="574" height="432" rx="10" fill="#fafbfc" stroke="#9aa6b2" stroke-width="2"/>
  <text x="905" y="151" text-anchor="middle" class="subtitle">Same challenge · complete structural covers</text>
  <text x="652" y="203" class="label">A195 split8</text><text x="1160" y="203" text-anchor="end" class="value">32 × 2¹⁵ · 32 UNKNOWN · 0 models</text>
  <text x="652" y="251" class="label">A196 split9</text><text x="1160" y="251" text-anchor="end" class="value">32 × 2¹⁵ · 32 UNKNOWN · 0 models</text>
  <line x1="650" y1="281" x2="1160" y2="281" stroke="#9aa6b2" stroke-width="1"/>
  <text x="652" y="325" class="label">A197 split8 refined</text><text x="1160" y="325" text-anchor="end" class="value">256 × 2¹² · 256 UNKNOWN · 0 models</text>
  <text x="652" y="377" class="label">execution</text><text x="1160" y="377" text-anchor="end" class="value">64 deterministic waves × 4 cells</text>
  <text x="652" y="429" class="label">cell budget</text><text x="1160" y="429" text-anchor="end" class="value">5,000 ms</text>
  <text x="652" y="481" class="label">structural union</text><text x="1160" y="481" text-anchor="end" class="value">2²⁰ = 1,048,576 candidates</text>
  <path d="M 36 686 L 36 714 L 1204 714 L 1204 686" fill="none" stroke="#17202a" stroke-width="2"/>
  <text x="620" y="743" text-anchor="middle" class="subtitle">Finer complete partition, same bounded status boundary: UNKNOWN is not UNSAT.</text>
  <text x="620" y="780" text-anchor="middle" class="small">The refinement makes no absence, recovery, or uniqueness claim; all 256 cells execute without early stop.</text>
</svg>
