<?xml version="1.0" encoding="UTF-8"?>
<svg xmlns="http://www.w3.org/2000/svg" width="1400" height="520" viewBox="0 0 1400 520" role="img" aria-labelledby="title desc">
  <title id="title">A190 prospective ChaCha7 width-18 instance boundary</title>
  <desc id="desc">Complete nine-view portable solver portfolio with eight unknown statuses, one exact Z3 parser boundary, and no returned model.</desc>
  <rect width="100%" height="100%" fill="#ffffff"/>
  <style>
    text { font-family: ui-monospace, SFMono-Regular, Menlo, Consolas, monospace; fill: #17202a; }
    .title { font-family: ui-sans-serif, system-ui, sans-serif; font-size: 26px; font-weight: 700; }
    .subtitle { font-family: ui-sans-serif, system-ui, sans-serif; font-size: 15px; fill: #43515d; }
    .label { font-size: 13px; }
    .small { font-size: 11px; fill: #43515d; }
    .value { font-size: 11px; font-weight: 700; }
  </style>
  <text x="30" y="43" class="title">A190 — prospective round-7 width-18 instance boundary</text>
  <text x="30" y="70" class="subtitle">Fresh reduced ChaCha7 · 18 unknown key bits · 238 known key bits · complete nine-view portfolio</text>
  <rect x="30" y="106" width="138" height="268" rx="8" fill="#f1f3f5" stroke="#667788" stroke-width="2"/>
  <text x="40" y="135" class="label">bitwuzla</text>
  <text x="40" y="158" class="small">bitblast · split6</text>
  <text x="40" y="181" class="small">blocks = 1</text>
  <text x="99.0" y="230" text-anchor="middle" class="title" fill="#667788">UNKNOWN</text>
  <text x="99.0" y="268" text-anchor="middle" class="small">budget 30 s</text>
  <text x="99.0" y="304" text-anchor="middle" class="small">no model</text>
  <text x="99.0" y="350" text-anchor="middle" class="small">bitwuzla bitblast split6 b1</text>
  <rect x="180" y="106" width="138" height="268" rx="8" fill="#f1f3f5" stroke="#667788" stroke-width="2"/>
  <text x="190" y="135" class="label">bitwuzla</text>
  <text x="190" y="158" class="small">bitblast · split6</text>
  <text x="190" y="181" class="small">blocks = 2</text>
  <text x="249.0" y="230" text-anchor="middle" class="title" fill="#667788">UNKNOWN</text>
  <text x="249.0" y="268" text-anchor="middle" class="small">budget 30 s</text>
  <text x="249.0" y="304" text-anchor="middle" class="small">no model</text>
  <text x="249.0" y="350" text-anchor="middle" class="small">bitwuzla bitblast split6 b2</text>
  <rect x="330" y="106" width="138" height="268" rx="8" fill="#f1f3f5" stroke="#667788" stroke-width="2"/>
  <text x="340" y="135" class="label">bitwuzla</text>
  <text x="340" y="158" class="small">bitblast · split6</text>
  <text x="340" y="181" class="small">blocks = 4</text>
  <text x="399.0" y="230" text-anchor="middle" class="title" fill="#667788">UNKNOWN</text>
  <text x="399.0" y="268" text-anchor="middle" class="small">budget 30 s</text>
  <text x="399.0" y="304" text-anchor="middle" class="small">no model</text>
  <text x="399.0" y="350" text-anchor="middle" class="small">bitwuzla bitblast split6 b4</text>
  <rect x="480" y="106" width="138" height="268" rx="8" fill="#f1f3f5" stroke="#667788" stroke-width="2"/>
  <text x="490" y="135" class="label">bitwuzla</text>
  <text x="490" y="158" class="small">bitblast · split6</text>
  <text x="490" y="181" class="small">blocks = 8</text>
  <text x="549.0" y="230" text-anchor="middle" class="title" fill="#667788">UNKNOWN</text>
  <text x="549.0" y="268" text-anchor="middle" class="small">budget 30 s</text>
  <text x="549.0" y="304" text-anchor="middle" class="small">no model</text>
  <text x="549.0" y="350" text-anchor="middle" class="small">bitwuzla bitblast split6 b8</text>
  <rect x="630" y="106" width="138" height="268" rx="8" fill="#f1f3f5" stroke="#667788" stroke-width="2"/>
  <text x="640" y="135" class="label">bitwuzla</text>
  <text x="640" y="158" class="small">preprop · split6</text>
  <text x="640" y="181" class="small">blocks = 1</text>
  <text x="699.0" y="230" text-anchor="middle" class="title" fill="#667788">UNKNOWN</text>
  <text x="699.0" y="268" text-anchor="middle" class="small">budget 30 s</text>
  <text x="699.0" y="304" text-anchor="middle" class="small">no model</text>
  <text x="699.0" y="350" text-anchor="middle" class="small">bitwuzla preprop split6 b1</text>
  <rect x="780" y="106" width="138" height="268" rx="8" fill="#f1f3f5" stroke="#667788" stroke-width="2"/>
  <text x="790" y="135" class="label">bitwuzla</text>
  <text x="790" y="158" class="small">prop · split6</text>
  <text x="790" y="181" class="small">blocks = 1</text>
  <text x="849.0" y="230" text-anchor="middle" class="title" fill="#667788">UNKNOWN</text>
  <text x="849.0" y="268" text-anchor="middle" class="small">budget 10 s</text>
  <text x="849.0" y="304" text-anchor="middle" class="small">no model</text>
  <text x="849.0" y="350" text-anchor="middle" class="small">bitwuzla prop split6 b1</text>
  <rect x="930" y="106" width="138" height="268" rx="8" fill="#f1f3f5" stroke="#667788" stroke-width="2"/>
  <text x="940" y="135" class="label">bitwuzla</text>
  <text x="940" y="158" class="small">bitblast · split5</text>
  <text x="940" y="181" class="small">blocks = 1</text>
  <text x="999.0" y="230" text-anchor="middle" class="title" fill="#667788">UNKNOWN</text>
  <text x="999.0" y="268" text-anchor="middle" class="small">budget 30 s</text>
  <text x="999.0" y="304" text-anchor="middle" class="small">no model</text>
  <text x="999.0" y="350" text-anchor="middle" class="small">bitwuzla bitblast split5 b1</text>
  <rect x="1080" y="106" width="138" height="268" rx="8" fill="#fff0d5" stroke="#c57c00" stroke-width="2"/>
  <text x="1090" y="135" class="label">z3</text>
  <text x="1090" y="158" class="small">bitblast · split6</text>
  <text x="1090" y="181" class="small">blocks = 1</text>
  <text x="1149.0" y="230" text-anchor="middle" class="title" fill="#c57c00">INVALID</text>
  <text x="1149.0" y="268" text-anchor="middle" class="small">budget 10 s</text>
  <text x="1149.0" y="294" text-anchor="middle" class="small">no status token</text>
  <text x="1149.0" y="314" text-anchor="middle" class="small">parser boundary</text>
  <text x="1149.0" y="350" text-anchor="middle" class="small">z3 bitblast split6 b1</text>
  <rect x="1230" y="106" width="138" height="268" rx="8" fill="#f1f3f5" stroke="#667788" stroke-width="2"/>
  <text x="1240" y="135" class="label">boolector</text>
  <text x="1240" y="158" class="small">fun · split6</text>
  <text x="1240" y="181" class="small">blocks = 1</text>
  <text x="1299.0" y="230" text-anchor="middle" class="title" fill="#667788">UNKNOWN</text>
  <text x="1299.0" y="268" text-anchor="middle" class="small">budget 10 s</text>
  <text x="1299.0" y="304" text-anchor="middle" class="small">no model</text>
  <text x="1299.0" y="350" text-anchor="middle" class="small">boolector fun split6 b1</text>
  <path d="M 30 400 L 30 424 L 1368 424 L 1368 400" fill="none" stroke="#667788" stroke-width="2"/>
  <text x="699" y="450" text-anchor="middle" class="subtitle">All nine predeclared views executed without early stop; zero models were returned.</text>
  <text x="30" y="486" class="small">Retained result: a prospective round-7 width-18 monolithic/portfolio instance boundary, not an absence claim for the complete 2¹⁸ domain.</text>
</svg>
