<?xml version="1.0" encoding="UTF-8"?>
<svg xmlns="http://www.w3.org/2000/svg" width="1240" height="800" viewBox="0 0 1240 800" role="img" aria-labelledby="title desc">
  <title id="title">A199 public ChaCha20 formula-operator atlas</title>
  <desc id="desc">Adjacent column-diagonal commutators dominate same-phase lag-two controls, the chronological product contracts while its order gap persists, and the third-cumulant statistic remains below its frozen marginal-preserving null threshold.</desc>
  <style>
    .title { font: 700 24px system-ui, sans-serif; fill: #17202a; }
    .subtitle { font: 600 15px system-ui, sans-serif; fill: #334155; }
    .label { font: 13px system-ui, sans-serif; fill: #334155; }
    .small { font: 12px system-ui, sans-serif; fill: #475569; }
    .axis { stroke: #64748b; stroke-width: 1.2; }
    .grid { stroke: #d8dee7; stroke-width: 1; }
  </style>
  <rect width="1240" height="800" fill="#ffffff"/>
  <text x="36" y="42" class="title">A199 — public ChaCha20 formula-operator atlas</text>
  <text x="36" y="69" class="subtitle">Deterministic public states · 20 rounds · no hidden assignment · no solver · no key-recovery claim</text>
  <rect x="36" y="92" width="574" height="452" rx="9" fill="#fafbfc" stroke="#9aa6b2" stroke-width="1.5"/>
  <text x="58" y="123" class="subtitle">T01 · phase-sensitive noncommutativity</text>
  <text x="58" y="145" class="small">Relative Frobenius commutator by starting round</text>
  <line x1="92.0" y1="476.00" x2="584.0" y2="476.00" class="grid"/>
  <text x="82" y="480.00" text-anchor="end" class="small">0.0</text>
  <line x1="92.0" y1="420.73" x2="584.0" y2="420.73" class="grid"/>
  <text x="82" y="424.73" text-anchor="end" class="small">0.1</text>
  <line x1="92.0" y1="365.45" x2="584.0" y2="365.45" class="grid"/>
  <text x="82" y="369.45" text-anchor="end" class="small">0.2</text>
  <line x1="92.0" y1="310.18" x2="584.0" y2="310.18" class="grid"/>
  <text x="82" y="314.18" text-anchor="end" class="small">0.3</text>
  <line x1="92.0" y1="254.91" x2="584.0" y2="254.91" class="grid"/>
  <text x="82" y="258.91" text-anchor="end" class="small">0.4</text>
  <line x1="92.0" y1="199.64" x2="584.0" y2="199.64" class="grid"/>
  <text x="82" y="203.64" text-anchor="end" class="small">0.5</text>
  <line x1="92.0" y1="172.0" x2="92.0" y2="476.0" class="axis"/>
  <line x1="92.0" y1="476.0" x2="584.0" y2="476.0" class="axis"/>
  <text x="92.00" y="498" text-anchor="middle" class="small">1</text>
  <text x="201.33" y="498" text-anchor="middle" class="small">5</text>
  <text x="338.00" y="498" text-anchor="middle" class="small">10</text>
  <text x="474.67" y="498" text-anchor="middle" class="small">15</text>
  <text x="584.00" y="498" text-anchor="middle" class="small">19</text>
  <polyline data-series="adjacent-column-diagonal" points="92.00,189.33 119.33,187.88 146.67,188.66 174.00,189.56 201.33,190.07 228.67,186.96 256.00,187.60 283.33,191.51 310.67,188.75 338.00,184.61 365.33,185.70 392.67,187.34 420.00,187.46 447.33,186.74 474.67,189.34 502.00,188.96 529.33,184.21 556.67,183.78 584.00,187.89" fill="none" stroke="#c2413b" stroke-width="2.4"/>
  <circle data-series="adjacent-column-diagonal" data-index="1" cx="92.00" cy="189.33" r="3.1" fill="#c2413b"/>
  <circle data-series="adjacent-column-diagonal" data-index="2" cx="119.33" cy="187.88" r="3.1" fill="#c2413b"/>
  <circle data-series="adjacent-column-diagonal" data-index="3" cx="146.67" cy="188.66" r="3.1" fill="#c2413b"/>
  <circle data-series="adjacent-column-diagonal" data-index="4" cx="174.00" cy="189.56" r="3.1" fill="#c2413b"/>
  <circle data-series="adjacent-column-diagonal" data-index="5" cx="201.33" cy="190.07" r="3.1" fill="#c2413b"/>
  <circle data-series="adjacent-column-diagonal" data-index="6" cx="228.67" cy="186.96" r="3.1" fill="#c2413b"/>
  <circle data-series="adjacent-column-diagonal" data-index="7" cx="256.00" cy="187.60" r="3.1" fill="#c2413b"/>
  <circle data-series="adjacent-column-diagonal" data-index="8" cx="283.33" cy="191.51" r="3.1" fill="#c2413b"/>
  <circle data-series="adjacent-column-diagonal" data-index="9" cx="310.67" cy="188.75" r="3.1" fill="#c2413b"/>
  <circle data-series="adjacent-column-diagonal" data-index="10" cx="338.00" cy="184.61" r="3.1" fill="#c2413b"/>
  <circle data-series="adjacent-column-diagonal" data-index="11" cx="365.33" cy="185.70" r="3.1" fill="#c2413b"/>
  <circle data-series="adjacent-column-diagonal" data-index="12" cx="392.67" cy="187.34" r="3.1" fill="#c2413b"/>
  <circle data-series="adjacent-column-diagonal" data-index="13" cx="420.00" cy="187.46" r="3.1" fill="#c2413b"/>
  <circle data-series="adjacent-column-diagonal" data-index="14" cx="447.33" cy="186.74" r="3.1" fill="#c2413b"/>
  <circle data-series="adjacent-column-diagonal" data-index="15" cx="474.67" cy="189.34" r="3.1" fill="#c2413b"/>
  <circle data-series="adjacent-column-diagonal" data-index="16" cx="502.00" cy="188.96" r="3.1" fill="#c2413b"/>
  <circle data-series="adjacent-column-diagonal" data-index="17" cx="529.33" cy="184.21" r="3.1" fill="#c2413b"/>
  <circle data-series="adjacent-column-diagonal" data-index="18" cx="556.67" cy="183.78" r="3.1" fill="#c2413b"/>
  <circle data-series="adjacent-column-diagonal" data-index="19" cx="584.00" cy="187.89" r="3.1" fill="#c2413b"/>
  <polyline data-series="same-phase-lag2" points="92.00,468.95 119.33,469.14 146.67,470.42 174.00,470.61 201.33,467.44 228.67,471.58 256.00,466.76 283.33,469.28 310.67,465.96 338.00,471.09 365.33,470.42 392.67,471.52 420.00,467.84 447.33,466.01 474.67,469.28 502.00,462.90 529.33,472.34 556.67,467.09" fill="none" stroke="#2563a8" stroke-width="2.4"/>
  <circle data-series="same-phase-lag2" data-index="1" cx="92.00" cy="468.95" r="3.1" fill="#2563a8"/>
  <circle data-series="same-phase-lag2" data-index="2" cx="119.33" cy="469.14" r="3.1" fill="#2563a8"/>
  <circle data-series="same-phase-lag2" data-index="3" cx="146.67" cy="470.42" r="3.1" fill="#2563a8"/>
  <circle data-series="same-phase-lag2" data-index="4" cx="174.00" cy="470.61" r="3.1" fill="#2563a8"/>
  <circle data-series="same-phase-lag2" data-index="5" cx="201.33" cy="467.44" r="3.1" fill="#2563a8"/>
  <circle data-series="same-phase-lag2" data-index="6" cx="228.67" cy="471.58" r="3.1" fill="#2563a8"/>
  <circle data-series="same-phase-lag2" data-index="7" cx="256.00" cy="466.76" r="3.1" fill="#2563a8"/>
  <circle data-series="same-phase-lag2" data-index="8" cx="283.33" cy="469.28" r="3.1" fill="#2563a8"/>
  <circle data-series="same-phase-lag2" data-index="9" cx="310.67" cy="465.96" r="3.1" fill="#2563a8"/>
  <circle data-series="same-phase-lag2" data-index="10" cx="338.00" cy="471.09" r="3.1" fill="#2563a8"/>
  <circle data-series="same-phase-lag2" data-index="11" cx="365.33" cy="470.42" r="3.1" fill="#2563a8"/>
  <circle data-series="same-phase-lag2" data-index="12" cx="392.67" cy="471.52" r="3.1" fill="#2563a8"/>
  <circle data-series="same-phase-lag2" data-index="13" cx="420.00" cy="467.84" r="3.1" fill="#2563a8"/>
  <circle data-series="same-phase-lag2" data-index="14" cx="447.33" cy="466.01" r="3.1" fill="#2563a8"/>
  <circle data-series="same-phase-lag2" data-index="15" cx="474.67" cy="469.28" r="3.1" fill="#2563a8"/>
  <circle data-series="same-phase-lag2" data-index="16" cx="502.00" cy="462.90" r="3.1" fill="#2563a8"/>
  <circle data-series="same-phase-lag2" data-index="17" cx="529.33" cy="472.34" r="3.1" fill="#2563a8"/>
  <circle data-series="same-phase-lag2" data-index="18" cx="556.67" cy="467.09" r="3.1" fill="#2563a8"/>
  <line x1="378" y1="118" x2="404" y2="118" stroke="#c2413b" stroke-width="3"/>
  <text x="410" y="123" class="small">adjacent C↔D · mean 0.521589</text>
  <line x1="378" y1="141" x2="404" y2="141" stroke="#2563a8" stroke-width="3"/>
  <text x="410" y="146" class="small">same-phase lag 2 · mean 0.013002</text>
  <text x="323" y="527" text-anchor="middle" class="label">mean contrast = 40.12×</text>
  <rect x="630" y="92" width="574" height="300" rx="9" fill="#fafbfc" stroke="#9aa6b2" stroke-width="1.5"/>
  <text x="652" y="123" class="subtitle">T01 · order information survives contraction</text>
  <text x="652" y="145" class="small">Log-scale diagnostic by cumulative round depth</text>
  <line x1="686.0" y1="184.00" x2="1178.0" y2="184.00" class="grid"/>
  <text x="676" y="188.00" text-anchor="end" class="small">10^0</text>
  <line x1="686.0" y1="220.50" x2="1178.0" y2="220.50" class="grid"/>
  <text x="676" y="224.50" text-anchor="end" class="small">10^-3</text>
  <line x1="686.0" y1="257.00" x2="1178.0" y2="257.00" class="grid"/>
  <text x="676" y="261.00" text-anchor="end" class="small">10^-6</text>
  <line x1="686.0" y1="293.50" x2="1178.0" y2="293.50" class="grid"/>
  <text x="676" y="297.50" text-anchor="end" class="small">10^-9</text>
  <line x1="686.0" y1="330.00" x2="1178.0" y2="330.00" class="grid"/>
  <text x="676" y="334.00" text-anchor="end" class="small">10^-12</text>
  <polyline data-series="forward-reverse-gap" points="686.00,330.00 711.89,187.47 737.79,207.14 763.68,206.40 789.58,206.91 815.47,206.14 841.37,204.67 867.26,205.70 893.16,205.77 919.05,205.51 944.95,204.44 970.84,205.42 996.74,204.76 1022.63,205.70 1048.53,207.27 1074.42,205.22 1100.32,204.37 1126.21,204.85 1152.11,205.13 1178.00,205.43" fill="none" stroke="#7c3aed" stroke-width="2.4"/>
  <circle data-series="forward-reverse-gap" data-index="1" cx="686.00" cy="330.00" r="3.1" fill="#7c3aed"/>
  <circle data-series="forward-reverse-gap" data-index="2" cx="711.89" cy="187.47" r="3.1" fill="#7c3aed"/>
  <circle data-series="forward-reverse-gap" data-index="3" cx="737.79" cy="207.14" r="3.1" fill="#7c3aed"/>
  <circle data-series="forward-reverse-gap" data-index="4" cx="763.68" cy="206.40" r="3.1" fill="#7c3aed"/>
  <circle data-series="forward-reverse-gap" data-index="5" cx="789.58" cy="206.91" r="3.1" fill="#7c3aed"/>
  <circle data-series="forward-reverse-gap" data-index="6" cx="815.47" cy="206.14" r="3.1" fill="#7c3aed"/>
  <circle data-series="forward-reverse-gap" data-index="7" cx="841.37" cy="204.67" r="3.1" fill="#7c3aed"/>
  <circle data-series="forward-reverse-gap" data-index="8" cx="867.26" cy="205.70" r="3.1" fill="#7c3aed"/>
  <circle data-series="forward-reverse-gap" data-index="9" cx="893.16" cy="205.77" r="3.1" fill="#7c3aed"/>
  <circle data-series="forward-reverse-gap" data-index="10" cx="919.05" cy="205.51" r="3.1" fill="#7c3aed"/>
  <circle data-series="forward-reverse-gap" data-index="11" cx="944.95" cy="204.44" r="3.1" fill="#7c3aed"/>
  <circle data-series="forward-reverse-gap" data-index="12" cx="970.84" cy="205.42" r="3.1" fill="#7c3aed"/>
  <circle data-series="forward-reverse-gap" data-index="13" cx="996.74" cy="204.76" r="3.1" fill="#7c3aed"/>
  <circle data-series="forward-reverse-gap" data-index="14" cx="1022.63" cy="205.70" r="3.1" fill="#7c3aed"/>
  <circle data-series="forward-reverse-gap" data-index="15" cx="1048.53" cy="207.27" r="3.1" fill="#7c3aed"/>
  <circle data-series="forward-reverse-gap" data-index="16" cx="1074.42" cy="205.22" r="3.1" fill="#7c3aed"/>
  <circle data-series="forward-reverse-gap" data-index="17" cx="1100.32" cy="204.37" r="3.1" fill="#7c3aed"/>
  <circle data-series="forward-reverse-gap" data-index="18" cx="1126.21" cy="204.85" r="3.1" fill="#7c3aed"/>
  <circle data-series="forward-reverse-gap" data-index="19" cx="1152.11" cy="205.13" r="3.1" fill="#7c3aed"/>
  <circle data-series="forward-reverse-gap" data-index="20" cx="1178.00" cy="205.43" r="3.1" fill="#7c3aed"/>
  <polyline data-series="chronological-dobrushin" points="686.00,184.00 711.89,188.33 737.79,196.40 763.68,211.41 789.58,214.69 815.47,219.21 841.37,227.47 867.26,241.64 893.16,245.00 919.05,249.98 944.95,258.07 970.84,272.11 996.74,276.10 1022.63,280.88 1048.53,288.77 1074.42,302.80 1100.32,307.05 1126.21,311.86 1152.11,319.72 1178.00,330.00" fill="none" stroke="#0f766e" stroke-width="2.4"/>
  <circle data-series="chronological-dobrushin" data-index="1" cx="686.00" cy="184.00" r="3.1" fill="#0f766e"/>
  <circle data-series="chronological-dobrushin" data-index="2" cx="711.89" cy="188.33" r="3.1" fill="#0f766e"/>
  <circle data-series="chronological-dobrushin" data-index="3" cx="737.79" cy="196.40" r="3.1" fill="#0f766e"/>
  <circle data-series="chronological-dobrushin" data-index="4" cx="763.68" cy="211.41" r="3.1" fill="#0f766e"/>
  <circle data-series="chronological-dobrushin" data-index="5" cx="789.58" cy="214.69" r="3.1" fill="#0f766e"/>
  <circle data-series="chronological-dobrushin" data-index="6" cx="815.47" cy="219.21" r="3.1" fill="#0f766e"/>
  <circle data-series="chronological-dobrushin" data-index="7" cx="841.37" cy="227.47" r="3.1" fill="#0f766e"/>
  <circle data-series="chronological-dobrushin" data-index="8" cx="867.26" cy="241.64" r="3.1" fill="#0f766e"/>
  <circle data-series="chronological-dobrushin" data-index="9" cx="893.16" cy="245.00" r="3.1" fill="#0f766e"/>
  <circle data-series="chronological-dobrushin" data-index="10" cx="919.05" cy="249.98" r="3.1" fill="#0f766e"/>
  <circle data-series="chronological-dobrushin" data-index="11" cx="944.95" cy="258.07" r="3.1" fill="#0f766e"/>
  <circle data-series="chronological-dobrushin" data-index="12" cx="970.84" cy="272.11" r="3.1" fill="#0f766e"/>
  <circle data-series="chronological-dobrushin" data-index="13" cx="996.74" cy="276.10" r="3.1" fill="#0f766e"/>
  <circle data-series="chronological-dobrushin" data-index="14" cx="1022.63" cy="280.88" r="3.1" fill="#0f766e"/>
  <circle data-series="chronological-dobrushin" data-index="15" cx="1048.53" cy="288.77" r="3.1" fill="#0f766e"/>
  <circle data-series="chronological-dobrushin" data-index="16" cx="1074.42" cy="302.80" r="3.1" fill="#0f766e"/>
  <circle data-series="chronological-dobrushin" data-index="17" cx="1100.32" cy="307.05" r="3.1" fill="#0f766e"/>
  <circle data-series="chronological-dobrushin" data-index="18" cx="1126.21" cy="311.86" r="3.1" fill="#0f766e"/>
  <circle data-series="chronological-dobrushin" data-index="19" cx="1152.11" cy="319.72" r="3.1" fill="#0f766e"/>
  <circle data-series="chronological-dobrushin" data-index="20" cx="1178.00" cy="330.00" r="3.1" fill="#0f766e"/>
  <line x1="686.0" y1="184.0" x2="686.0" y2="330.0" class="axis"/>
  <line x1="686.0" y1="330.0" x2="1178.0" y2="330.0" class="axis"/>
  <line x1="856" y1="164" x2="880" y2="164" stroke="#7c3aed" stroke-width="3"/>
  <text x="886" y="169" class="small">forward/reverse gap</text>
  <line x1="1014" y1="164" x2="1038" y2="164" stroke="#0f766e" stroke-width="3"/>
  <text x="1044" y="169" class="small">Dobrushin</text>
  <text x="932" y="360" text-anchor="middle" class="small">depth 20: order gap 0.017337 · Dobrushin 10⁻¹²</text>
  <rect x="630" y="412" width="574" height="216" rx="9" fill="#fafbfc" stroke="#9aa6b2" stroke-width="1.5"/>
  <text x="652" y="443" class="subtitle">T02 · frozen third-cumulant boundary</text>
  <text x="652" y="465" class="small">L2 statistic normalized by the exact 32-null mean</text>
  <line x1="682.0" y1="520.0" x2="1172.0" y2="520.0" class="axis"/>
  <line x1="682.00" y1="514" x2="682.00" y2="526" class="axis"/>
  <text x="682.00" y="548" text-anchor="middle" class="small">0.94</text>
  <line x1="845.33" y1="514" x2="845.33" y2="526" class="axis"/>
  <text x="845.33" y="548" text-anchor="middle" class="small">0.98</text>
  <line x1="927.00" y1="514" x2="927.00" y2="526" class="axis"/>
  <text x="927.00" y="548" text-anchor="middle" class="small">1.00</text>
  <line x1="1008.67" y1="514" x2="1008.67" y2="526" class="axis"/>
  <text x="1008.67" y="548" text-anchor="middle" class="small">1.02</text>
  <line x1="1172.00" y1="514" x2="1172.00" y2="526" class="axis"/>
  <text x="1172.00" y="548" text-anchor="middle" class="small">1.06</text>
  <line data-null-replicate="0" x1="948.31" y1="504" x2="948.31" y2="526" stroke="#94a3b8" stroke-width="1"/>
  <line data-null-replicate="1" x1="1017.92" y1="499" x2="1017.92" y2="526" stroke="#94a3b8" stroke-width="1"/>
  <line data-null-replicate="2" x1="931.94" y1="494" x2="931.94" y2="526" stroke="#94a3b8" stroke-width="1"/>
  <line data-null-replicate="3" x1="670.10" y1="504" x2="670.10" y2="526" stroke="#94a3b8" stroke-width="1"/>
  <line data-null-replicate="4" x1="816.08" y1="499" x2="816.08" y2="526" stroke="#94a3b8" stroke-width="1"/>
  <line data-null-replicate="5" x1="911.34" y1="494" x2="911.34" y2="526" stroke="#94a3b8" stroke-width="1"/>
  <line data-null-replicate="6" x1="933.41" y1="504" x2="933.41" y2="526" stroke="#94a3b8" stroke-width="1"/>
  <line data-null-replicate="7" x1="1115.25" y1="499" x2="1115.25" y2="526" stroke="#94a3b8" stroke-width="1"/>
  <line data-null-replicate="8" x1="848.22" y1="494" x2="848.22" y2="526" stroke="#94a3b8" stroke-width="1"/>
  <line data-null-replicate="9" x1="900.55" y1="504" x2="900.55" y2="526" stroke="#94a3b8" stroke-width="1"/>
  <line data-null-replicate="10" x1="950.85" y1="499" x2="950.85" y2="526" stroke="#94a3b8" stroke-width="1"/>
  <line data-null-replicate="11" x1="959.22" y1="494" x2="959.22" y2="526" stroke="#94a3b8" stroke-width="1"/>
  <line data-null-replicate="12" x1="791.63" y1="504" x2="791.63" y2="526" stroke="#94a3b8" stroke-width="1"/>
  <line data-null-replicate="13" x1="839.32" y1="499" x2="839.32" y2="526" stroke="#94a3b8" stroke-width="1"/>
  <line data-null-replicate="14" x1="1114.26" y1="494" x2="1114.26" y2="526" stroke="#94a3b8" stroke-width="1"/>
  <line data-null-replicate="15" x1="936.93" y1="504" x2="936.93" y2="526" stroke="#94a3b8" stroke-width="1"/>
  <line data-null-replicate="16" x1="754.88" y1="499" x2="754.88" y2="526" stroke="#94a3b8" stroke-width="1"/>
  <line data-null-replicate="17" x1="996.85" y1="494" x2="996.85" y2="526" stroke="#94a3b8" stroke-width="1"/>
  <line data-null-replicate="18" x1="1061.22" y1="504" x2="1061.22" y2="526" stroke="#94a3b8" stroke-width="1"/>
  <line data-null-replicate="19" x1="847.43" y1="499" x2="847.43" y2="526" stroke="#94a3b8" stroke-width="1"/>
  <line data-null-replicate="20" x1="1053.41" y1="494" x2="1053.41" y2="526" stroke="#94a3b8" stroke-width="1"/>
  <line data-null-replicate="21" x1="775.62" y1="504" x2="775.62" y2="526" stroke="#94a3b8" stroke-width="1"/>
  <line data-null-replicate="22" x1="948.89" y1="499" x2="948.89" y2="526" stroke="#94a3b8" stroke-width="1"/>
  <line data-null-replicate="23" x1="877.63" y1="494" x2="877.63" y2="526" stroke="#94a3b8" stroke-width="1"/>
  <line data-null-replicate="24" x1="958.03" y1="504" x2="958.03" y2="526" stroke="#94a3b8" stroke-width="1"/>
  <line data-null-replicate="25" x1="983.35" y1="499" x2="983.35" y2="526" stroke="#94a3b8" stroke-width="1"/>
  <line data-null-replicate="26" x1="899.54" y1="494" x2="899.54" y2="526" stroke="#94a3b8" stroke-width="1"/>
  <line data-null-replicate="27" x1="1082.57" y1="504" x2="1082.57" y2="526" stroke="#94a3b8" stroke-width="1"/>
  <line data-null-replicate="28" x1="982.42" y1="499" x2="982.42" y2="526" stroke="#94a3b8" stroke-width="1"/>
  <line data-null-replicate="29" x1="1015.19" y1="494" x2="1015.19" y2="526" stroke="#94a3b8" stroke-width="1"/>
  <line data-null-replicate="30" x1="722.82" y1="504" x2="722.82" y2="526" stroke="#94a3b8" stroke-width="1"/>
  <line data-null-replicate="31" x1="1018.82" y1="499" x2="1018.82" y2="526" stroke="#94a3b8" stroke-width="1"/>
  <line data-marker="null-mean" x1="927.00" y1="488" x2="927.00" y2="532" stroke="#334155" stroke-width="2"/>
  <line data-marker="observed" x1="1005.86" y1="482" x2="1005.86" y2="532" stroke="#d97706" stroke-width="3"/>
  <line data-marker="frozen-threshold" x1="1115.25" y1="482" x2="1115.25" y2="532" stroke="#b91c1c" stroke-width="3" stroke-dasharray="5 4"/>
  <text x="1005.86" y="578" text-anchor="middle" class="small">observed 1.0193×</text>
  <text x="1115.25" y="598" text-anchor="middle" class="small">97.5% higher = 1.0461×</text>
  <text x="652" y="612" class="small">H2 not retained · empirical upper p = 0.272727 · same marginals exact</text>
  <rect x="36" y="652" width="1168" height="112" rx="9" fill="#f8fafc" stroke="#9aa6b2" stroke-width="1.5"/>
  <text x="58" y="684" class="subtitle">Exact retained construction and scope</text>
  <text x="58" y="710" class="label">T04 Fiedler filtration: 0x0087f, 0x00c7f, 0x10c7f, 0x12c7f, 0x1ac7f · GF(2) rank 5 · 32 × 32,768 = 2²⁰</text>
  <text x="58" y="736" class="label">All five masks are nested thresholds of mode 1; this is a partition baseline, not a demonstrated multimode mixture. T05 signed channel = 0.244046475056, rank = 20.</text>
</svg>
