<?xml version="1.0"?>
<svg xmlns="http://www.w3.org/2000/svg" width="1240" height="590">
<style>.t{font:700 24px system-ui}.s{font:600 15px system-ui}.x{font:12px system-ui;fill:#475569}.sat{fill:#dcfce7;stroke:#15803d}.unk{fill:#f1f3f5;stroke:#7c3aed}.box{fill:#fafbfc;stroke:#9aa6b2}</style>
<rect width="1240" height="590" fill="white"/>
<text x="36" y="42" class="t">A204 — external-CNF calibration and round-10 transfer</text>
<text x="36" y="70" class="s">26 frozen A188 configurations select CaDiCaL reverse · complete A202 cover remains open</text>
<rect x="36" y="96" width="1168" height="104" rx="9" class="box"/>
<text x="58" y="130" class="s">A188 calibration: 1 SAT · 25 UNKNOWN</text>
<rect x="58" y="148" width="1080" height="28" rx="4" class="unk"/>
<rect data-calibration="cadical_reverse" x="1096" y="148" width="42" height="28" rx="4" class="sat"/>
<text x="598" y="168" text-anchor="middle" class="x">unique selected cell: cadical_reverse · independently confirmed 4,096 bits</text>
<rect x="36" y="224" width="1168" height="246" rx="9" class="box"/>
<text x="58" y="258" class="s">A204 prospective ChaCha10 cover: 32 × 2¹⁵ = 2²⁰</text>
<rect data-cell="00000" x="58" y="278" width="126" height="32" rx="4" class="unk"/>
<text x="121" y="299" text-anchor="middle" class="x">00000 · UNKNOWN</text>
<rect data-cell="00001" x="198" y="278" width="126" height="32" rx="4" class="unk"/>
<text x="261" y="299" text-anchor="middle" class="x">00001 · UNKNOWN</text>
<rect data-cell="00010" x="338" y="278" width="126" height="32" rx="4" class="unk"/>
<text x="401" y="299" text-anchor="middle" class="x">00010 · UNKNOWN</text>
<rect data-cell="00011" x="478" y="278" width="126" height="32" rx="4" class="unk"/>
<text x="541" y="299" text-anchor="middle" class="x">00011 · UNKNOWN</text>
<rect data-cell="00100" x="618" y="278" width="126" height="32" rx="4" class="unk"/>
<text x="681" y="299" text-anchor="middle" class="x">00100 · UNKNOWN</text>
<rect data-cell="00101" x="758" y="278" width="126" height="32" rx="4" class="unk"/>
<text x="821" y="299" text-anchor="middle" class="x">00101 · UNKNOWN</text>
<rect data-cell="00110" x="898" y="278" width="126" height="32" rx="4" class="unk"/>
<text x="961" y="299" text-anchor="middle" class="x">00110 · UNKNOWN</text>
<rect data-cell="00111" x="1038" y="278" width="126" height="32" rx="4" class="unk"/>
<text x="1101" y="299" text-anchor="middle" class="x">00111 · UNKNOWN</text>
<rect data-cell="01000" x="58" y="320" width="126" height="32" rx="4" class="unk"/>
<text x="121" y="341" text-anchor="middle" class="x">01000 · UNKNOWN</text>
<rect data-cell="01001" x="198" y="320" width="126" height="32" rx="4" class="unk"/>
<text x="261" y="341" text-anchor="middle" class="x">01001 · UNKNOWN</text>
<rect data-cell="01010" x="338" y="320" width="126" height="32" rx="4" class="unk"/>
<text x="401" y="341" text-anchor="middle" class="x">01010 · UNKNOWN</text>
<rect data-cell="01011" x="478" y="320" width="126" height="32" rx="4" class="unk"/>
<text x="541" y="341" text-anchor="middle" class="x">01011 · UNKNOWN</text>
<rect data-cell="01100" x="618" y="320" width="126" height="32" rx="4" class="unk"/>
<text x="681" y="341" text-anchor="middle" class="x">01100 · UNKNOWN</text>
<rect data-cell="01101" x="758" y="320" width="126" height="32" rx="4" class="unk"/>
<text x="821" y="341" text-anchor="middle" class="x">01101 · UNKNOWN</text>
<rect data-cell="01110" x="898" y="320" width="126" height="32" rx="4" class="unk"/>
<text x="961" y="341" text-anchor="middle" class="x">01110 · UNKNOWN</text>
<rect data-cell="01111" x="1038" y="320" width="126" height="32" rx="4" class="unk"/>
<text x="1101" y="341" text-anchor="middle" class="x">01111 · UNKNOWN</text>
<rect data-cell="10000" x="58" y="362" width="126" height="32" rx="4" class="unk"/>
<text x="121" y="383" text-anchor="middle" class="x">10000 · UNKNOWN</text>
<rect data-cell="10001" x="198" y="362" width="126" height="32" rx="4" class="unk"/>
<text x="261" y="383" text-anchor="middle" class="x">10001 · UNKNOWN</text>
<rect data-cell="10010" x="338" y="362" width="126" height="32" rx="4" class="unk"/>
<text x="401" y="383" text-anchor="middle" class="x">10010 · UNKNOWN</text>
<rect data-cell="10011" x="478" y="362" width="126" height="32" rx="4" class="unk"/>
<text x="541" y="383" text-anchor="middle" class="x">10011 · UNKNOWN</text>
<rect data-cell="10100" x="618" y="362" width="126" height="32" rx="4" class="unk"/>
<text x="681" y="383" text-anchor="middle" class="x">10100 · UNKNOWN</text>
<rect data-cell="10101" x="758" y="362" width="126" height="32" rx="4" class="unk"/>
<text x="821" y="383" text-anchor="middle" class="x">10101 · UNKNOWN</text>
<rect data-cell="10110" x="898" y="362" width="126" height="32" rx="4" class="unk"/>
<text x="961" y="383" text-anchor="middle" class="x">10110 · UNKNOWN</text>
<rect data-cell="10111" x="1038" y="362" width="126" height="32" rx="4" class="unk"/>
<text x="1101" y="383" text-anchor="middle" class="x">10111 · UNKNOWN</text>
<rect data-cell="11000" x="58" y="404" width="126" height="32" rx="4" class="unk"/>
<text x="121" y="425" text-anchor="middle" class="x">11000 · UNKNOWN</text>
<rect data-cell="11001" x="198" y="404" width="126" height="32" rx="4" class="unk"/>
<text x="261" y="425" text-anchor="middle" class="x">11001 · UNKNOWN</text>
<rect data-cell="11010" x="338" y="404" width="126" height="32" rx="4" class="unk"/>
<text x="401" y="425" text-anchor="middle" class="x">11010 · UNKNOWN</text>
<rect data-cell="11011" x="478" y="404" width="126" height="32" rx="4" class="unk"/>
<text x="541" y="425" text-anchor="middle" class="x">11011 · UNKNOWN</text>
<rect data-cell="11100" x="618" y="404" width="126" height="32" rx="4" class="unk"/>
<text x="681" y="425" text-anchor="middle" class="x">11100 · UNKNOWN</text>
<rect data-cell="11101" x="758" y="404" width="126" height="32" rx="4" class="unk"/>
<text x="821" y="425" text-anchor="middle" class="x">11101 · UNKNOWN</text>
<rect data-cell="11110" x="898" y="404" width="126" height="32" rx="4" class="unk"/>
<text x="961" y="425" text-anchor="middle" class="x">11110 · UNKNOWN</text>
<rect data-cell="11111" x="1038" y="404" width="126" height="32" rx="4" class="unk"/>
<text x="1101" y="425" text-anchor="middle" class="x">11111 · UNKNOWN</text>
<text x="58" y="526" class="s">Exact CNF mapping retained; selected A188 rule does not resolve an A204 cell.</text>
<text x="58" y="550" class="x">UNKNOWN is not UNSAT · exact retained observations only</text>
</svg>
