<?xml version="1.0" encoding="UTF-8"?>
<svg xmlns="http://www.w3.org/2000/svg" width="1240" height="800" viewBox="0 0 1240 800" role="img" aria-labelledby="title desc">
  <title id="title">A200 ChaCha10 public-geometry complete-partition boundary</title>
  <desc id="desc">Four complete affine covers each contain 32 unknown cells and no returned model. Gray spans the same row space as the prior numeric prefix, while the three formula-derived row spaces are pairwise distinct.</desc>
  <style>
    .title{font:700 24px system-ui,sans-serif;fill:#17202a}.sub{font:600 15px system-ui,sans-serif;fill:#334155}.label{font:13px system-ui,sans-serif;fill:#334155}.small{font:12px system-ui,sans-serif;fill:#475569}
  </style>
  <rect width="1240" height="800" fill="#fff"/>
  <text x="36" y="42" class="title">A200 — four complete public-geometry covers</text>
  <text x="36" y="69" class="sub">Same still-secret ChaCha10 width-20 challenge · b8 / 4,096 target bits · 10,000 ms per cell</text>
  <rect x="36" y="94" width="574" height="224" rx="9" fill="#fafbfc" stroke="#9aa6b2" stroke-width="1.5"/>
  <text x="56" y="124" class="sub">Gray control</text>
  <text x="590" y="124" text-anchor="end" class="small">32 × 2¹⁵ = 2²⁰ · 32 UNKNOWN · 0 models</text>
  <rect data-geometry="gray_prefix_control" data-cell="00000" x="54" y="146" width="61" height="31" rx="4" fill="#f1f3f5" stroke="#64748b"/>
  <text x="84.5" y="166" text-anchor="middle" class="small">00000</text>
  <rect data-geometry="gray_prefix_control" data-cell="00001" x="122" y="146" width="61" height="31" rx="4" fill="#f1f3f5" stroke="#64748b"/>
  <text x="152.5" y="166" text-anchor="middle" class="small">00001</text>
  <rect data-geometry="gray_prefix_control" data-cell="00010" x="190" y="146" width="61" height="31" rx="4" fill="#f1f3f5" stroke="#64748b"/>
  <text x="220.5" y="166" text-anchor="middle" class="small">00010</text>
  <rect data-geometry="gray_prefix_control" data-cell="00011" x="258" y="146" width="61" height="31" rx="4" fill="#f1f3f5" stroke="#64748b"/>
  <text x="288.5" y="166" text-anchor="middle" class="small">00011</text>
  <rect data-geometry="gray_prefix_control" data-cell="00100" x="326" y="146" width="61" height="31" rx="4" fill="#f1f3f5" stroke="#64748b"/>
  <text x="356.5" y="166" text-anchor="middle" class="small">00100</text>
  <rect data-geometry="gray_prefix_control" data-cell="00101" x="394" y="146" width="61" height="31" rx="4" fill="#f1f3f5" stroke="#64748b"/>
  <text x="424.5" y="166" text-anchor="middle" class="small">00101</text>
  <rect data-geometry="gray_prefix_control" data-cell="00110" x="462" y="146" width="61" height="31" rx="4" fill="#f1f3f5" stroke="#64748b"/>
  <text x="492.5" y="166" text-anchor="middle" class="small">00110</text>
  <rect data-geometry="gray_prefix_control" data-cell="00111" x="530" y="146" width="61" height="31" rx="4" fill="#f1f3f5" stroke="#64748b"/>
  <text x="560.5" y="166" text-anchor="middle" class="small">00111</text>
  <rect data-geometry="gray_prefix_control" data-cell="01000" x="54" y="185" width="61" height="31" rx="4" fill="#f1f3f5" stroke="#64748b"/>
  <text x="84.5" y="205" text-anchor="middle" class="small">01000</text>
  <rect data-geometry="gray_prefix_control" data-cell="01001" x="122" y="185" width="61" height="31" rx="4" fill="#f1f3f5" stroke="#64748b"/>
  <text x="152.5" y="205" text-anchor="middle" class="small">01001</text>
  <rect data-geometry="gray_prefix_control" data-cell="01010" x="190" y="185" width="61" height="31" rx="4" fill="#f1f3f5" stroke="#64748b"/>
  <text x="220.5" y="205" text-anchor="middle" class="small">01010</text>
  <rect data-geometry="gray_prefix_control" data-cell="01011" x="258" y="185" width="61" height="31" rx="4" fill="#f1f3f5" stroke="#64748b"/>
  <text x="288.5" y="205" text-anchor="middle" class="small">01011</text>
  <rect data-geometry="gray_prefix_control" data-cell="01100" x="326" y="185" width="61" height="31" rx="4" fill="#f1f3f5" stroke="#64748b"/>
  <text x="356.5" y="205" text-anchor="middle" class="small">01100</text>
  <rect data-geometry="gray_prefix_control" data-cell="01101" x="394" y="185" width="61" height="31" rx="4" fill="#f1f3f5" stroke="#64748b"/>
  <text x="424.5" y="205" text-anchor="middle" class="small">01101</text>
  <rect data-geometry="gray_prefix_control" data-cell="01110" x="462" y="185" width="61" height="31" rx="4" fill="#f1f3f5" stroke="#64748b"/>
  <text x="492.5" y="205" text-anchor="middle" class="small">01110</text>
  <rect data-geometry="gray_prefix_control" data-cell="01111" x="530" y="185" width="61" height="31" rx="4" fill="#f1f3f5" stroke="#64748b"/>
  <text x="560.5" y="205" text-anchor="middle" class="small">01111</text>
  <rect data-geometry="gray_prefix_control" data-cell="10000" x="54" y="224" width="61" height="31" rx="4" fill="#f1f3f5" stroke="#64748b"/>
  <text x="84.5" y="244" text-anchor="middle" class="small">10000</text>
  <rect data-geometry="gray_prefix_control" data-cell="10001" x="122" y="224" width="61" height="31" rx="4" fill="#f1f3f5" stroke="#64748b"/>
  <text x="152.5" y="244" text-anchor="middle" class="small">10001</text>
  <rect data-geometry="gray_prefix_control" data-cell="10010" x="190" y="224" width="61" height="31" rx="4" fill="#f1f3f5" stroke="#64748b"/>
  <text x="220.5" y="244" text-anchor="middle" class="small">10010</text>
  <rect data-geometry="gray_prefix_control" data-cell="10011" x="258" y="224" width="61" height="31" rx="4" fill="#f1f3f5" stroke="#64748b"/>
  <text x="288.5" y="244" text-anchor="middle" class="small">10011</text>
  <rect data-geometry="gray_prefix_control" data-cell="10100" x="326" y="224" width="61" height="31" rx="4" fill="#f1f3f5" stroke="#64748b"/>
  <text x="356.5" y="244" text-anchor="middle" class="small">10100</text>
  <rect data-geometry="gray_prefix_control" data-cell="10101" x="394" y="224" width="61" height="31" rx="4" fill="#f1f3f5" stroke="#64748b"/>
  <text x="424.5" y="244" text-anchor="middle" class="small">10101</text>
  <rect data-geometry="gray_prefix_control" data-cell="10110" x="462" y="224" width="61" height="31" rx="4" fill="#f1f3f5" stroke="#64748b"/>
  <text x="492.5" y="244" text-anchor="middle" class="small">10110</text>
  <rect data-geometry="gray_prefix_control" data-cell="10111" x="530" y="224" width="61" height="31" rx="4" fill="#f1f3f5" stroke="#64748b"/>
  <text x="560.5" y="244" text-anchor="middle" class="small">10111</text>
  <rect data-geometry="gray_prefix_control" data-cell="11000" x="54" y="263" width="61" height="31" rx="4" fill="#f1f3f5" stroke="#64748b"/>
  <text x="84.5" y="283" text-anchor="middle" class="small">11000</text>
  <rect data-geometry="gray_prefix_control" data-cell="11001" x="122" y="263" width="61" height="31" rx="4" fill="#f1f3f5" stroke="#64748b"/>
  <text x="152.5" y="283" text-anchor="middle" class="small">11001</text>
  <rect data-geometry="gray_prefix_control" data-cell="11010" x="190" y="263" width="61" height="31" rx="4" fill="#f1f3f5" stroke="#64748b"/>
  <text x="220.5" y="283" text-anchor="middle" class="small">11010</text>
  <rect data-geometry="gray_prefix_control" data-cell="11011" x="258" y="263" width="61" height="31" rx="4" fill="#f1f3f5" stroke="#64748b"/>
  <text x="288.5" y="283" text-anchor="middle" class="small">11011</text>
  <rect data-geometry="gray_prefix_control" data-cell="11100" x="326" y="263" width="61" height="31" rx="4" fill="#f1f3f5" stroke="#64748b"/>
  <text x="356.5" y="283" text-anchor="middle" class="small">11100</text>
  <rect data-geometry="gray_prefix_control" data-cell="11101" x="394" y="263" width="61" height="31" rx="4" fill="#f1f3f5" stroke="#64748b"/>
  <text x="424.5" y="283" text-anchor="middle" class="small">11101</text>
  <rect data-geometry="gray_prefix_control" data-cell="11110" x="462" y="263" width="61" height="31" rx="4" fill="#f1f3f5" stroke="#64748b"/>
  <text x="492.5" y="283" text-anchor="middle" class="small">11110</text>
  <rect data-geometry="gray_prefix_control" data-cell="11111" x="530" y="263" width="61" height="31" rx="4" fill="#f1f3f5" stroke="#64748b"/>
  <text x="560.5" y="283" text-anchor="middle" class="small">11111</text>
  <rect x="630" y="94" width="574" height="224" rx="9" fill="#fafbfc" stroke="#9aa6b2" stroke-width="1.5"/>
  <text x="650" y="124" class="sub">Fiedler filtration</text>
  <text x="1184" y="124" text-anchor="end" class="small">32 × 2¹⁵ = 2²⁰ · 32 UNKNOWN · 0 models</text>
  <rect data-geometry="fiedler_filtration" data-cell="00000" x="648" y="146" width="61" height="31" rx="4" fill="#f1f3f5" stroke="#2563a8"/>
  <text x="678.5" y="166" text-anchor="middle" class="small">00000</text>
  <rect data-geometry="fiedler_filtration" data-cell="00001" x="716" y="146" width="61" height="31" rx="4" fill="#f1f3f5" stroke="#2563a8"/>
  <text x="746.5" y="166" text-anchor="middle" class="small">00001</text>
  <rect data-geometry="fiedler_filtration" data-cell="00010" x="784" y="146" width="61" height="31" rx="4" fill="#f1f3f5" stroke="#2563a8"/>
  <text x="814.5" y="166" text-anchor="middle" class="small">00010</text>
  <rect data-geometry="fiedler_filtration" data-cell="00011" x="852" y="146" width="61" height="31" rx="4" fill="#f1f3f5" stroke="#2563a8"/>
  <text x="882.5" y="166" text-anchor="middle" class="small">00011</text>
  <rect data-geometry="fiedler_filtration" data-cell="00100" x="920" y="146" width="61" height="31" rx="4" fill="#f1f3f5" stroke="#2563a8"/>
  <text x="950.5" y="166" text-anchor="middle" class="small">00100</text>
  <rect data-geometry="fiedler_filtration" data-cell="00101" x="988" y="146" width="61" height="31" rx="4" fill="#f1f3f5" stroke="#2563a8"/>
  <text x="1018.5" y="166" text-anchor="middle" class="small">00101</text>
  <rect data-geometry="fiedler_filtration" data-cell="00110" x="1056" y="146" width="61" height="31" rx="4" fill="#f1f3f5" stroke="#2563a8"/>
  <text x="1086.5" y="166" text-anchor="middle" class="small">00110</text>
  <rect data-geometry="fiedler_filtration" data-cell="00111" x="1124" y="146" width="61" height="31" rx="4" fill="#f1f3f5" stroke="#2563a8"/>
  <text x="1154.5" y="166" text-anchor="middle" class="small">00111</text>
  <rect data-geometry="fiedler_filtration" data-cell="01000" x="648" y="185" width="61" height="31" rx="4" fill="#f1f3f5" stroke="#2563a8"/>
  <text x="678.5" y="205" text-anchor="middle" class="small">01000</text>
  <rect data-geometry="fiedler_filtration" data-cell="01001" x="716" y="185" width="61" height="31" rx="4" fill="#f1f3f5" stroke="#2563a8"/>
  <text x="746.5" y="205" text-anchor="middle" class="small">01001</text>
  <rect data-geometry="fiedler_filtration" data-cell="01010" x="784" y="185" width="61" height="31" rx="4" fill="#f1f3f5" stroke="#2563a8"/>
  <text x="814.5" y="205" text-anchor="middle" class="small">01010</text>
  <rect data-geometry="fiedler_filtration" data-cell="01011" x="852" y="185" width="61" height="31" rx="4" fill="#f1f3f5" stroke="#2563a8"/>
  <text x="882.5" y="205" text-anchor="middle" class="small">01011</text>
  <rect data-geometry="fiedler_filtration" data-cell="01100" x="920" y="185" width="61" height="31" rx="4" fill="#f1f3f5" stroke="#2563a8"/>
  <text x="950.5" y="205" text-anchor="middle" class="small">01100</text>
  <rect data-geometry="fiedler_filtration" data-cell="01101" x="988" y="185" width="61" height="31" rx="4" fill="#f1f3f5" stroke="#2563a8"/>
  <text x="1018.5" y="205" text-anchor="middle" class="small">01101</text>
  <rect data-geometry="fiedler_filtration" data-cell="01110" x="1056" y="185" width="61" height="31" rx="4" fill="#f1f3f5" stroke="#2563a8"/>
  <text x="1086.5" y="205" text-anchor="middle" class="small">01110</text>
  <rect data-geometry="fiedler_filtration" data-cell="01111" x="1124" y="185" width="61" height="31" rx="4" fill="#f1f3f5" stroke="#2563a8"/>
  <text x="1154.5" y="205" text-anchor="middle" class="small">01111</text>
  <rect data-geometry="fiedler_filtration" data-cell="10000" x="648" y="224" width="61" height="31" rx="4" fill="#f1f3f5" stroke="#2563a8"/>
  <text x="678.5" y="244" text-anchor="middle" class="small">10000</text>
  <rect data-geometry="fiedler_filtration" data-cell="10001" x="716" y="224" width="61" height="31" rx="4" fill="#f1f3f5" stroke="#2563a8"/>
  <text x="746.5" y="244" text-anchor="middle" class="small">10001</text>
  <rect data-geometry="fiedler_filtration" data-cell="10010" x="784" y="224" width="61" height="31" rx="4" fill="#f1f3f5" stroke="#2563a8"/>
  <text x="814.5" y="244" text-anchor="middle" class="small">10010</text>
  <rect data-geometry="fiedler_filtration" data-cell="10011" x="852" y="224" width="61" height="31" rx="4" fill="#f1f3f5" stroke="#2563a8"/>
  <text x="882.5" y="244" text-anchor="middle" class="small">10011</text>
  <rect data-geometry="fiedler_filtration" data-cell="10100" x="920" y="224" width="61" height="31" rx="4" fill="#f1f3f5" stroke="#2563a8"/>
  <text x="950.5" y="244" text-anchor="middle" class="small">10100</text>
  <rect data-geometry="fiedler_filtration" data-cell="10101" x="988" y="224" width="61" height="31" rx="4" fill="#f1f3f5" stroke="#2563a8"/>
  <text x="1018.5" y="244" text-anchor="middle" class="small">10101</text>
  <rect data-geometry="fiedler_filtration" data-cell="10110" x="1056" y="224" width="61" height="31" rx="4" fill="#f1f3f5" stroke="#2563a8"/>
  <text x="1086.5" y="244" text-anchor="middle" class="small">10110</text>
  <rect data-geometry="fiedler_filtration" data-cell="10111" x="1124" y="224" width="61" height="31" rx="4" fill="#f1f3f5" stroke="#2563a8"/>
  <text x="1154.5" y="244" text-anchor="middle" class="small">10111</text>
  <rect data-geometry="fiedler_filtration" data-cell="11000" x="648" y="263" width="61" height="31" rx="4" fill="#f1f3f5" stroke="#2563a8"/>
  <text x="678.5" y="283" text-anchor="middle" class="small">11000</text>
  <rect data-geometry="fiedler_filtration" data-cell="11001" x="716" y="263" width="61" height="31" rx="4" fill="#f1f3f5" stroke="#2563a8"/>
  <text x="746.5" y="283" text-anchor="middle" class="small">11001</text>
  <rect data-geometry="fiedler_filtration" data-cell="11010" x="784" y="263" width="61" height="31" rx="4" fill="#f1f3f5" stroke="#2563a8"/>
  <text x="814.5" y="283" text-anchor="middle" class="small">11010</text>
  <rect data-geometry="fiedler_filtration" data-cell="11011" x="852" y="263" width="61" height="31" rx="4" fill="#f1f3f5" stroke="#2563a8"/>
  <text x="882.5" y="283" text-anchor="middle" class="small">11011</text>
  <rect data-geometry="fiedler_filtration" data-cell="11100" x="920" y="263" width="61" height="31" rx="4" fill="#f1f3f5" stroke="#2563a8"/>
  <text x="950.5" y="283" text-anchor="middle" class="small">11100</text>
  <rect data-geometry="fiedler_filtration" data-cell="11101" x="988" y="263" width="61" height="31" rx="4" fill="#f1f3f5" stroke="#2563a8"/>
  <text x="1018.5" y="283" text-anchor="middle" class="small">11101</text>
  <rect data-geometry="fiedler_filtration" data-cell="11110" x="1056" y="263" width="61" height="31" rx="4" fill="#f1f3f5" stroke="#2563a8"/>
  <text x="1086.5" y="283" text-anchor="middle" class="small">11110</text>
  <rect data-geometry="fiedler_filtration" data-cell="11111" x="1124" y="263" width="61" height="31" rx="4" fill="#f1f3f5" stroke="#2563a8"/>
  <text x="1154.5" y="283" text-anchor="middle" class="small">11111</text>
  <rect x="36" y="340" width="574" height="224" rx="9" fill="#fafbfc" stroke="#9aa6b2" stroke-width="1.5"/>
  <text x="56" y="370" class="sub">Laplacian modes 1–5</text>
  <text x="590" y="370" text-anchor="end" class="small">32 × 2¹⁵ = 2²⁰ · 32 UNKNOWN · 0 models</text>
  <rect data-geometry="laplacian_distinct_modes" data-cell="00000" x="54" y="392" width="61" height="31" rx="4" fill="#f1f3f5" stroke="#7c3aed"/>
  <text x="84.5" y="412" text-anchor="middle" class="small">00000</text>
  <rect data-geometry="laplacian_distinct_modes" data-cell="00001" x="122" y="392" width="61" height="31" rx="4" fill="#f1f3f5" stroke="#7c3aed"/>
  <text x="152.5" y="412" text-anchor="middle" class="small">00001</text>
  <rect data-geometry="laplacian_distinct_modes" data-cell="00010" x="190" y="392" width="61" height="31" rx="4" fill="#f1f3f5" stroke="#7c3aed"/>
  <text x="220.5" y="412" text-anchor="middle" class="small">00010</text>
  <rect data-geometry="laplacian_distinct_modes" data-cell="00011" x="258" y="392" width="61" height="31" rx="4" fill="#f1f3f5" stroke="#7c3aed"/>
  <text x="288.5" y="412" text-anchor="middle" class="small">00011</text>
  <rect data-geometry="laplacian_distinct_modes" data-cell="00100" x="326" y="392" width="61" height="31" rx="4" fill="#f1f3f5" stroke="#7c3aed"/>
  <text x="356.5" y="412" text-anchor="middle" class="small">00100</text>
  <rect data-geometry="laplacian_distinct_modes" data-cell="00101" x="394" y="392" width="61" height="31" rx="4" fill="#f1f3f5" stroke="#7c3aed"/>
  <text x="424.5" y="412" text-anchor="middle" class="small">00101</text>
  <rect data-geometry="laplacian_distinct_modes" data-cell="00110" x="462" y="392" width="61" height="31" rx="4" fill="#f1f3f5" stroke="#7c3aed"/>
  <text x="492.5" y="412" text-anchor="middle" class="small">00110</text>
  <rect data-geometry="laplacian_distinct_modes" data-cell="00111" x="530" y="392" width="61" height="31" rx="4" fill="#f1f3f5" stroke="#7c3aed"/>
  <text x="560.5" y="412" text-anchor="middle" class="small">00111</text>
  <rect data-geometry="laplacian_distinct_modes" data-cell="01000" x="54" y="431" width="61" height="31" rx="4" fill="#f1f3f5" stroke="#7c3aed"/>
  <text x="84.5" y="451" text-anchor="middle" class="small">01000</text>
  <rect data-geometry="laplacian_distinct_modes" data-cell="01001" x="122" y="431" width="61" height="31" rx="4" fill="#f1f3f5" stroke="#7c3aed"/>
  <text x="152.5" y="451" text-anchor="middle" class="small">01001</text>
  <rect data-geometry="laplacian_distinct_modes" data-cell="01010" x="190" y="431" width="61" height="31" rx="4" fill="#f1f3f5" stroke="#7c3aed"/>
  <text x="220.5" y="451" text-anchor="middle" class="small">01010</text>
  <rect data-geometry="laplacian_distinct_modes" data-cell="01011" x="258" y="431" width="61" height="31" rx="4" fill="#f1f3f5" stroke="#7c3aed"/>
  <text x="288.5" y="451" text-anchor="middle" class="small">01011</text>
  <rect data-geometry="laplacian_distinct_modes" data-cell="01100" x="326" y="431" width="61" height="31" rx="4" fill="#f1f3f5" stroke="#7c3aed"/>
  <text x="356.5" y="451" text-anchor="middle" class="small">01100</text>
  <rect data-geometry="laplacian_distinct_modes" data-cell="01101" x="394" y="431" width="61" height="31" rx="4" fill="#f1f3f5" stroke="#7c3aed"/>
  <text x="424.5" y="451" text-anchor="middle" class="small">01101</text>
  <rect data-geometry="laplacian_distinct_modes" data-cell="01110" x="462" y="431" width="61" height="31" rx="4" fill="#f1f3f5" stroke="#7c3aed"/>
  <text x="492.5" y="451" text-anchor="middle" class="small">01110</text>
  <rect data-geometry="laplacian_distinct_modes" data-cell="01111" x="530" y="431" width="61" height="31" rx="4" fill="#f1f3f5" stroke="#7c3aed"/>
  <text x="560.5" y="451" text-anchor="middle" class="small">01111</text>
  <rect data-geometry="laplacian_distinct_modes" data-cell="10000" x="54" y="470" width="61" height="31" rx="4" fill="#f1f3f5" stroke="#7c3aed"/>
  <text x="84.5" y="490" text-anchor="middle" class="small">10000</text>
  <rect data-geometry="laplacian_distinct_modes" data-cell="10001" x="122" y="470" width="61" height="31" rx="4" fill="#f1f3f5" stroke="#7c3aed"/>
  <text x="152.5" y="490" text-anchor="middle" class="small">10001</text>
  <rect data-geometry="laplacian_distinct_modes" data-cell="10010" x="190" y="470" width="61" height="31" rx="4" fill="#f1f3f5" stroke="#7c3aed"/>
  <text x="220.5" y="490" text-anchor="middle" class="small">10010</text>
  <rect data-geometry="laplacian_distinct_modes" data-cell="10011" x="258" y="470" width="61" height="31" rx="4" fill="#f1f3f5" stroke="#7c3aed"/>
  <text x="288.5" y="490" text-anchor="middle" class="small">10011</text>
  <rect data-geometry="laplacian_distinct_modes" data-cell="10100" x="326" y="470" width="61" height="31" rx="4" fill="#f1f3f5" stroke="#7c3aed"/>
  <text x="356.5" y="490" text-anchor="middle" class="small">10100</text>
  <rect data-geometry="laplacian_distinct_modes" data-cell="10101" x="394" y="470" width="61" height="31" rx="4" fill="#f1f3f5" stroke="#7c3aed"/>
  <text x="424.5" y="490" text-anchor="middle" class="small">10101</text>
  <rect data-geometry="laplacian_distinct_modes" data-cell="10110" x="462" y="470" width="61" height="31" rx="4" fill="#f1f3f5" stroke="#7c3aed"/>
  <text x="492.5" y="490" text-anchor="middle" class="small">10110</text>
  <rect data-geometry="laplacian_distinct_modes" data-cell="10111" x="530" y="470" width="61" height="31" rx="4" fill="#f1f3f5" stroke="#7c3aed"/>
  <text x="560.5" y="490" text-anchor="middle" class="small">10111</text>
  <rect data-geometry="laplacian_distinct_modes" data-cell="11000" x="54" y="509" width="61" height="31" rx="4" fill="#f1f3f5" stroke="#7c3aed"/>
  <text x="84.5" y="529" text-anchor="middle" class="small">11000</text>
  <rect data-geometry="laplacian_distinct_modes" data-cell="11001" x="122" y="509" width="61" height="31" rx="4" fill="#f1f3f5" stroke="#7c3aed"/>
  <text x="152.5" y="529" text-anchor="middle" class="small">11001</text>
  <rect data-geometry="laplacian_distinct_modes" data-cell="11010" x="190" y="509" width="61" height="31" rx="4" fill="#f1f3f5" stroke="#7c3aed"/>
  <text x="220.5" y="529" text-anchor="middle" class="small">11010</text>
  <rect data-geometry="laplacian_distinct_modes" data-cell="11011" x="258" y="509" width="61" height="31" rx="4" fill="#f1f3f5" stroke="#7c3aed"/>
  <text x="288.5" y="529" text-anchor="middle" class="small">11011</text>
  <rect data-geometry="laplacian_distinct_modes" data-cell="11100" x="326" y="509" width="61" height="31" rx="4" fill="#f1f3f5" stroke="#7c3aed"/>
  <text x="356.5" y="529" text-anchor="middle" class="small">11100</text>
  <rect data-geometry="laplacian_distinct_modes" data-cell="11101" x="394" y="509" width="61" height="31" rx="4" fill="#f1f3f5" stroke="#7c3aed"/>
  <text x="424.5" y="529" text-anchor="middle" class="small">11101</text>
  <rect data-geometry="laplacian_distinct_modes" data-cell="11110" x="462" y="509" width="61" height="31" rx="4" fill="#f1f3f5" stroke="#7c3aed"/>
  <text x="492.5" y="529" text-anchor="middle" class="small">11110</text>
  <rect data-geometry="laplacian_distinct_modes" data-cell="11111" x="530" y="509" width="61" height="31" rx="4" fill="#f1f3f5" stroke="#7c3aed"/>
  <text x="560.5" y="529" text-anchor="middle" class="small">11111</text>
  <rect x="630" y="340" width="574" height="224" rx="9" fill="#fafbfc" stroke="#9aa6b2" stroke-width="1.5"/>
  <text x="650" y="370" class="sub">Signed-SVD modes 1–5</text>
  <text x="1184" y="370" text-anchor="end" class="small">32 × 2¹⁵ = 2²⁰ · 32 UNKNOWN · 0 models</text>
  <rect data-geometry="signed_svd_distinct_modes" data-cell="00000" x="648" y="392" width="61" height="31" rx="4" fill="#f1f3f5" stroke="#0f766e"/>
  <text x="678.5" y="412" text-anchor="middle" class="small">00000</text>
  <rect data-geometry="signed_svd_distinct_modes" data-cell="00001" x="716" y="392" width="61" height="31" rx="4" fill="#f1f3f5" stroke="#0f766e"/>
  <text x="746.5" y="412" text-anchor="middle" class="small">00001</text>
  <rect data-geometry="signed_svd_distinct_modes" data-cell="00010" x="784" y="392" width="61" height="31" rx="4" fill="#f1f3f5" stroke="#0f766e"/>
  <text x="814.5" y="412" text-anchor="middle" class="small">00010</text>
  <rect data-geometry="signed_svd_distinct_modes" data-cell="00011" x="852" y="392" width="61" height="31" rx="4" fill="#f1f3f5" stroke="#0f766e"/>
  <text x="882.5" y="412" text-anchor="middle" class="small">00011</text>
  <rect data-geometry="signed_svd_distinct_modes" data-cell="00100" x="920" y="392" width="61" height="31" rx="4" fill="#f1f3f5" stroke="#0f766e"/>
  <text x="950.5" y="412" text-anchor="middle" class="small">00100</text>
  <rect data-geometry="signed_svd_distinct_modes" data-cell="00101" x="988" y="392" width="61" height="31" rx="4" fill="#f1f3f5" stroke="#0f766e"/>
  <text x="1018.5" y="412" text-anchor="middle" class="small">00101</text>
  <rect data-geometry="signed_svd_distinct_modes" data-cell="00110" x="1056" y="392" width="61" height="31" rx="4" fill="#f1f3f5" stroke="#0f766e"/>
  <text x="1086.5" y="412" text-anchor="middle" class="small">00110</text>
  <rect data-geometry="signed_svd_distinct_modes" data-cell="00111" x="1124" y="392" width="61" height="31" rx="4" fill="#f1f3f5" stroke="#0f766e"/>
  <text x="1154.5" y="412" text-anchor="middle" class="small">00111</text>
  <rect data-geometry="signed_svd_distinct_modes" data-cell="01000" x="648" y="431" width="61" height="31" rx="4" fill="#f1f3f5" stroke="#0f766e"/>
  <text x="678.5" y="451" text-anchor="middle" class="small">01000</text>
  <rect data-geometry="signed_svd_distinct_modes" data-cell="01001" x="716" y="431" width="61" height="31" rx="4" fill="#f1f3f5" stroke="#0f766e"/>
  <text x="746.5" y="451" text-anchor="middle" class="small">01001</text>
  <rect data-geometry="signed_svd_distinct_modes" data-cell="01010" x="784" y="431" width="61" height="31" rx="4" fill="#f1f3f5" stroke="#0f766e"/>
  <text x="814.5" y="451" text-anchor="middle" class="small">01010</text>
  <rect data-geometry="signed_svd_distinct_modes" data-cell="01011" x="852" y="431" width="61" height="31" rx="4" fill="#f1f3f5" stroke="#0f766e"/>
  <text x="882.5" y="451" text-anchor="middle" class="small">01011</text>
  <rect data-geometry="signed_svd_distinct_modes" data-cell="01100" x="920" y="431" width="61" height="31" rx="4" fill="#f1f3f5" stroke="#0f766e"/>
  <text x="950.5" y="451" text-anchor="middle" class="small">01100</text>
  <rect data-geometry="signed_svd_distinct_modes" data-cell="01101" x="988" y="431" width="61" height="31" rx="4" fill="#f1f3f5" stroke="#0f766e"/>
  <text x="1018.5" y="451" text-anchor="middle" class="small">01101</text>
  <rect data-geometry="signed_svd_distinct_modes" data-cell="01110" x="1056" y="431" width="61" height="31" rx="4" fill="#f1f3f5" stroke="#0f766e"/>
  <text x="1086.5" y="451" text-anchor="middle" class="small">01110</text>
  <rect data-geometry="signed_svd_distinct_modes" data-cell="01111" x="1124" y="431" width="61" height="31" rx="4" fill="#f1f3f5" stroke="#0f766e"/>
  <text x="1154.5" y="451" text-anchor="middle" class="small">01111</text>
  <rect data-geometry="signed_svd_distinct_modes" data-cell="10000" x="648" y="470" width="61" height="31" rx="4" fill="#f1f3f5" stroke="#0f766e"/>
  <text x="678.5" y="490" text-anchor="middle" class="small">10000</text>
  <rect data-geometry="signed_svd_distinct_modes" data-cell="10001" x="716" y="470" width="61" height="31" rx="4" fill="#f1f3f5" stroke="#0f766e"/>
  <text x="746.5" y="490" text-anchor="middle" class="small">10001</text>
  <rect data-geometry="signed_svd_distinct_modes" data-cell="10010" x="784" y="470" width="61" height="31" rx="4" fill="#f1f3f5" stroke="#0f766e"/>
  <text x="814.5" y="490" text-anchor="middle" class="small">10010</text>
  <rect data-geometry="signed_svd_distinct_modes" data-cell="10011" x="852" y="470" width="61" height="31" rx="4" fill="#f1f3f5" stroke="#0f766e"/>
  <text x="882.5" y="490" text-anchor="middle" class="small">10011</text>
  <rect data-geometry="signed_svd_distinct_modes" data-cell="10100" x="920" y="470" width="61" height="31" rx="4" fill="#f1f3f5" stroke="#0f766e"/>
  <text x="950.5" y="490" text-anchor="middle" class="small">10100</text>
  <rect data-geometry="signed_svd_distinct_modes" data-cell="10101" x="988" y="470" width="61" height="31" rx="4" fill="#f1f3f5" stroke="#0f766e"/>
  <text x="1018.5" y="490" text-anchor="middle" class="small">10101</text>
  <rect data-geometry="signed_svd_distinct_modes" data-cell="10110" x="1056" y="470" width="61" height="31" rx="4" fill="#f1f3f5" stroke="#0f766e"/>
  <text x="1086.5" y="490" text-anchor="middle" class="small">10110</text>
  <rect data-geometry="signed_svd_distinct_modes" data-cell="10111" x="1124" y="470" width="61" height="31" rx="4" fill="#f1f3f5" stroke="#0f766e"/>
  <text x="1154.5" y="490" text-anchor="middle" class="small">10111</text>
  <rect data-geometry="signed_svd_distinct_modes" data-cell="11000" x="648" y="509" width="61" height="31" rx="4" fill="#f1f3f5" stroke="#0f766e"/>
  <text x="678.5" y="529" text-anchor="middle" class="small">11000</text>
  <rect data-geometry="signed_svd_distinct_modes" data-cell="11001" x="716" y="509" width="61" height="31" rx="4" fill="#f1f3f5" stroke="#0f766e"/>
  <text x="746.5" y="529" text-anchor="middle" class="small">11001</text>
  <rect data-geometry="signed_svd_distinct_modes" data-cell="11010" x="784" y="509" width="61" height="31" rx="4" fill="#f1f3f5" stroke="#0f766e"/>
  <text x="814.5" y="529" text-anchor="middle" class="small">11010</text>
  <rect data-geometry="signed_svd_distinct_modes" data-cell="11011" x="852" y="509" width="61" height="31" rx="4" fill="#f1f3f5" stroke="#0f766e"/>
  <text x="882.5" y="529" text-anchor="middle" class="small">11011</text>
  <rect data-geometry="signed_svd_distinct_modes" data-cell="11100" x="920" y="509" width="61" height="31" rx="4" fill="#f1f3f5" stroke="#0f766e"/>
  <text x="950.5" y="529" text-anchor="middle" class="small">11100</text>
  <rect data-geometry="signed_svd_distinct_modes" data-cell="11101" x="988" y="509" width="61" height="31" rx="4" fill="#f1f3f5" stroke="#0f766e"/>
  <text x="1018.5" y="529" text-anchor="middle" class="small">11101</text>
  <rect data-geometry="signed_svd_distinct_modes" data-cell="11110" x="1056" y="509" width="61" height="31" rx="4" fill="#f1f3f5" stroke="#0f766e"/>
  <text x="1086.5" y="529" text-anchor="middle" class="small">11110</text>
  <rect data-geometry="signed_svd_distinct_modes" data-cell="11111" x="1124" y="509" width="61" height="31" rx="4" fill="#f1f3f5" stroke="#0f766e"/>
  <text x="1154.5" y="529" text-anchor="middle" class="small">11111</text>
  <rect x="36" y="590" width="1168" height="174" rx="9" fill="#f8fafc" stroke="#9aa6b2" stroke-width="1.5"/>
  <text x="58" y="622" class="sub">Row-space fairness audit</text>
  <text x="58" y="648" class="label">Gray = A198 numeric-prefix row span exactly: encoding/compiler control, not new cell membership.</text>
  <text data-row-space="gray_prefix_control" x="58" y="675" class="small">Gray control: canonical RREF weights [1,1,1,1,1] · same span as numeric</text>
  <text data-row-space="fiedler_filtration" x="58" y="697" class="small">Fiedler filtration: canonical RREF weights [1,1,1,1,8] · distinct formula-derived span</text>
  <text data-row-space="laplacian_distinct_modes" x="58" y="719" class="small">Laplacian modes 1–5: canonical RREF weights [8,8,10,10,12] · distinct formula-derived span</text>
  <text data-row-space="signed_svd_distinct_modes" x="58" y="741" class="small">Signed-SVD modes 1–5: canonical RREF weights [6,8,8,10,12] · distinct formula-derived span</text>
  <text x="1200" y="746" text-anchor="end" class="small">All 128 cells executed · UNKNOWN is not UNSAT · no absence, recovery, or uniqueness claim</text>
</svg>
