<?xml version="1.0" encoding="UTF-8"?>
<svg xmlns="http://www.w3.org/2000/svg" width="1240" height="820" viewBox="0 0 1240 820" role="img" aria-labelledby="title desc">
  <title id="title">A198 ChaCha10 shared-key eight-block two-budget boundary</title>
  <desc id="desc">Two complete 32-cell width-15 covers use identical eight-block SMT formulas at 10-second and 30-second budgets; all 64 bounded outcomes are UNKNOWN and no model is returned.</desc>
  <rect width="100%" height="100%" fill="#ffffff"/>
  <style>
    text { font-family: ui-monospace, SFMono-Regular, Menlo, Consolas, monospace; fill: #17202a; }
    .title { font-family: ui-sans-serif, system-ui, sans-serif; font-size: 26px; font-weight: 700; }
    .subtitle { font-family: ui-sans-serif, system-ui, sans-serif; font-size: 15px; fill: #43515d; }
    .label { font-size: 13px; }
    .small { font-size: 11px; fill: #43515d; }
    .value { font-size: 11px; font-weight: 700; }
  </style>
  <text x="36" y="43" class="title">A198 — eight-block complete-partition resource boundary</text>
  <text x="36" y="70" class="subtitle">Same still-secret ChaCha10 challenge · 8 shared-key blocks · 4,096 target bits per cell</text>
  <rect x="36" y="96" width="568" height="424" rx="9" fill="#fafbfc" stroke="#9aa6b2" stroke-width="2"/>
  <text x="320" y="128" text-anchor="middle" class="subtitle">10,000 ms · complete 2²⁰ cover · 32 UNKNOWN · 0 models</text>
  <rect data-budget="10000" data-prefix="00000" x="52" y="146" width="63" height="82" rx="5" fill="#f1f3f5" stroke="#667788"/>
  <text x="83.5" y="171" text-anchor="middle" class="small">00000</text>
  <text x="83.5" y="196" text-anchor="middle" class="small">UNKNOWN</text>
  <text x="83.5" y="215" text-anchor="middle" class="small">2¹⁵</text>
  <rect data-budget="10000" data-prefix="00001" x="120" y="146" width="63" height="82" rx="5" fill="#f1f3f5" stroke="#667788"/>
  <text x="151.5" y="171" text-anchor="middle" class="small">00001</text>
  <text x="151.5" y="196" text-anchor="middle" class="small">UNKNOWN</text>
  <text x="151.5" y="215" text-anchor="middle" class="small">2¹⁵</text>
  <rect data-budget="10000" data-prefix="00010" x="188" y="146" width="63" height="82" rx="5" fill="#f1f3f5" stroke="#667788"/>
  <text x="219.5" y="171" text-anchor="middle" class="small">00010</text>
  <text x="219.5" y="196" text-anchor="middle" class="small">UNKNOWN</text>
  <text x="219.5" y="215" text-anchor="middle" class="small">2¹⁵</text>
  <rect data-budget="10000" data-prefix="00011" x="256" y="146" width="63" height="82" rx="5" fill="#f1f3f5" stroke="#667788"/>
  <text x="287.5" y="171" text-anchor="middle" class="small">00011</text>
  <text x="287.5" y="196" text-anchor="middle" class="small">UNKNOWN</text>
  <text x="287.5" y="215" text-anchor="middle" class="small">2¹⁵</text>
  <rect data-budget="10000" data-prefix="00100" x="324" y="146" width="63" height="82" rx="5" fill="#f1f3f5" stroke="#667788"/>
  <text x="355.5" y="171" text-anchor="middle" class="small">00100</text>
  <text x="355.5" y="196" text-anchor="middle" class="small">UNKNOWN</text>
  <text x="355.5" y="215" text-anchor="middle" class="small">2¹⁵</text>
  <rect data-budget="10000" data-prefix="00101" x="392" y="146" width="63" height="82" rx="5" fill="#f1f3f5" stroke="#667788"/>
  <text x="423.5" y="171" text-anchor="middle" class="small">00101</text>
  <text x="423.5" y="196" text-anchor="middle" class="small">UNKNOWN</text>
  <text x="423.5" y="215" text-anchor="middle" class="small">2¹⁵</text>
  <rect data-budget="10000" data-prefix="00110" x="460" y="146" width="63" height="82" rx="5" fill="#f1f3f5" stroke="#667788"/>
  <text x="491.5" y="171" text-anchor="middle" class="small">00110</text>
  <text x="491.5" y="196" text-anchor="middle" class="small">UNKNOWN</text>
  <text x="491.5" y="215" text-anchor="middle" class="small">2¹⁵</text>
  <rect data-budget="10000" data-prefix="00111" x="528" y="146" width="63" height="82" rx="5" fill="#f1f3f5" stroke="#667788"/>
  <text x="559.5" y="171" text-anchor="middle" class="small">00111</text>
  <text x="559.5" y="196" text-anchor="middle" class="small">UNKNOWN</text>
  <text x="559.5" y="215" text-anchor="middle" class="small">2¹⁵</text>
  <rect data-budget="10000" data-prefix="01000" x="52" y="237" width="63" height="82" rx="5" fill="#f1f3f5" stroke="#667788"/>
  <text x="83.5" y="262" text-anchor="middle" class="small">01000</text>
  <text x="83.5" y="287" text-anchor="middle" class="small">UNKNOWN</text>
  <text x="83.5" y="306" text-anchor="middle" class="small">2¹⁵</text>
  <rect data-budget="10000" data-prefix="01001" x="120" y="237" width="63" height="82" rx="5" fill="#f1f3f5" stroke="#667788"/>
  <text x="151.5" y="262" text-anchor="middle" class="small">01001</text>
  <text x="151.5" y="287" text-anchor="middle" class="small">UNKNOWN</text>
  <text x="151.5" y="306" text-anchor="middle" class="small">2¹⁵</text>
  <rect data-budget="10000" data-prefix="01010" x="188" y="237" width="63" height="82" rx="5" fill="#f1f3f5" stroke="#667788"/>
  <text x="219.5" y="262" text-anchor="middle" class="small">01010</text>
  <text x="219.5" y="287" text-anchor="middle" class="small">UNKNOWN</text>
  <text x="219.5" y="306" text-anchor="middle" class="small">2¹⁵</text>
  <rect data-budget="10000" data-prefix="01011" x="256" y="237" width="63" height="82" rx="5" fill="#f1f3f5" stroke="#667788"/>
  <text x="287.5" y="262" text-anchor="middle" class="small">01011</text>
  <text x="287.5" y="287" text-anchor="middle" class="small">UNKNOWN</text>
  <text x="287.5" y="306" text-anchor="middle" class="small">2¹⁵</text>
  <rect data-budget="10000" data-prefix="01100" x="324" y="237" width="63" height="82" rx="5" fill="#f1f3f5" stroke="#667788"/>
  <text x="355.5" y="262" text-anchor="middle" class="small">01100</text>
  <text x="355.5" y="287" text-anchor="middle" class="small">UNKNOWN</text>
  <text x="355.5" y="306" text-anchor="middle" class="small">2¹⁵</text>
  <rect data-budget="10000" data-prefix="01101" x="392" y="237" width="63" height="82" rx="5" fill="#f1f3f5" stroke="#667788"/>
  <text x="423.5" y="262" text-anchor="middle" class="small">01101</text>
  <text x="423.5" y="287" text-anchor="middle" class="small">UNKNOWN</text>
  <text x="423.5" y="306" text-anchor="middle" class="small">2¹⁵</text>
  <rect data-budget="10000" data-prefix="01110" x="460" y="237" width="63" height="82" rx="5" fill="#f1f3f5" stroke="#667788"/>
  <text x="491.5" y="262" text-anchor="middle" class="small">01110</text>
  <text x="491.5" y="287" text-anchor="middle" class="small">UNKNOWN</text>
  <text x="491.5" y="306" text-anchor="middle" class="small">2¹⁵</text>
  <rect data-budget="10000" data-prefix="01111" x="528" y="237" width="63" height="82" rx="5" fill="#f1f3f5" stroke="#667788"/>
  <text x="559.5" y="262" text-anchor="middle" class="small">01111</text>
  <text x="559.5" y="287" text-anchor="middle" class="small">UNKNOWN</text>
  <text x="559.5" y="306" text-anchor="middle" class="small">2¹⁵</text>
  <rect data-budget="10000" data-prefix="10000" x="52" y="328" width="63" height="82" rx="5" fill="#f1f3f5" stroke="#667788"/>
  <text x="83.5" y="353" text-anchor="middle" class="small">10000</text>
  <text x="83.5" y="378" text-anchor="middle" class="small">UNKNOWN</text>
  <text x="83.5" y="397" text-anchor="middle" class="small">2¹⁵</text>
  <rect data-budget="10000" data-prefix="10001" x="120" y="328" width="63" height="82" rx="5" fill="#f1f3f5" stroke="#667788"/>
  <text x="151.5" y="353" text-anchor="middle" class="small">10001</text>
  <text x="151.5" y="378" text-anchor="middle" class="small">UNKNOWN</text>
  <text x="151.5" y="397" text-anchor="middle" class="small">2¹⁵</text>
  <rect data-budget="10000" data-prefix="10010" x="188" y="328" width="63" height="82" rx="5" fill="#f1f3f5" stroke="#667788"/>
  <text x="219.5" y="353" text-anchor="middle" class="small">10010</text>
  <text x="219.5" y="378" text-anchor="middle" class="small">UNKNOWN</text>
  <text x="219.5" y="397" text-anchor="middle" class="small">2¹⁵</text>
  <rect data-budget="10000" data-prefix="10011" x="256" y="328" width="63" height="82" rx="5" fill="#f1f3f5" stroke="#667788"/>
  <text x="287.5" y="353" text-anchor="middle" class="small">10011</text>
  <text x="287.5" y="378" text-anchor="middle" class="small">UNKNOWN</text>
  <text x="287.5" y="397" text-anchor="middle" class="small">2¹⁵</text>
  <rect data-budget="10000" data-prefix="10100" x="324" y="328" width="63" height="82" rx="5" fill="#f1f3f5" stroke="#667788"/>
  <text x="355.5" y="353" text-anchor="middle" class="small">10100</text>
  <text x="355.5" y="378" text-anchor="middle" class="small">UNKNOWN</text>
  <text x="355.5" y="397" text-anchor="middle" class="small">2¹⁵</text>
  <rect data-budget="10000" data-prefix="10101" x="392" y="328" width="63" height="82" rx="5" fill="#f1f3f5" stroke="#667788"/>
  <text x="423.5" y="353" text-anchor="middle" class="small">10101</text>
  <text x="423.5" y="378" text-anchor="middle" class="small">UNKNOWN</text>
  <text x="423.5" y="397" text-anchor="middle" class="small">2¹⁵</text>
  <rect data-budget="10000" data-prefix="10110" x="460" y="328" width="63" height="82" rx="5" fill="#f1f3f5" stroke="#667788"/>
  <text x="491.5" y="353" text-anchor="middle" class="small">10110</text>
  <text x="491.5" y="378" text-anchor="middle" class="small">UNKNOWN</text>
  <text x="491.5" y="397" text-anchor="middle" class="small">2¹⁵</text>
  <rect data-budget="10000" data-prefix="10111" x="528" y="328" width="63" height="82" rx="5" fill="#f1f3f5" stroke="#667788"/>
  <text x="559.5" y="353" text-anchor="middle" class="small">10111</text>
  <text x="559.5" y="378" text-anchor="middle" class="small">UNKNOWN</text>
  <text x="559.5" y="397" text-anchor="middle" class="small">2¹⁵</text>
  <rect data-budget="10000" data-prefix="11000" x="52" y="419" width="63" height="82" rx="5" fill="#f1f3f5" stroke="#667788"/>
  <text x="83.5" y="444" text-anchor="middle" class="small">11000</text>
  <text x="83.5" y="469" text-anchor="middle" class="small">UNKNOWN</text>
  <text x="83.5" y="488" text-anchor="middle" class="small">2¹⁵</text>
  <rect data-budget="10000" data-prefix="11001" x="120" y="419" width="63" height="82" rx="5" fill="#f1f3f5" stroke="#667788"/>
  <text x="151.5" y="444" text-anchor="middle" class="small">11001</text>
  <text x="151.5" y="469" text-anchor="middle" class="small">UNKNOWN</text>
  <text x="151.5" y="488" text-anchor="middle" class="small">2¹⁵</text>
  <rect data-budget="10000" data-prefix="11010" x="188" y="419" width="63" height="82" rx="5" fill="#f1f3f5" stroke="#667788"/>
  <text x="219.5" y="444" text-anchor="middle" class="small">11010</text>
  <text x="219.5" y="469" text-anchor="middle" class="small">UNKNOWN</text>
  <text x="219.5" y="488" text-anchor="middle" class="small">2¹⁵</text>
  <rect data-budget="10000" data-prefix="11011" x="256" y="419" width="63" height="82" rx="5" fill="#f1f3f5" stroke="#667788"/>
  <text x="287.5" y="444" text-anchor="middle" class="small">11011</text>
  <text x="287.5" y="469" text-anchor="middle" class="small">UNKNOWN</text>
  <text x="287.5" y="488" text-anchor="middle" class="small">2¹⁵</text>
  <rect data-budget="10000" data-prefix="11100" x="324" y="419" width="63" height="82" rx="5" fill="#f1f3f5" stroke="#667788"/>
  <text x="355.5" y="444" text-anchor="middle" class="small">11100</text>
  <text x="355.5" y="469" text-anchor="middle" class="small">UNKNOWN</text>
  <text x="355.5" y="488" text-anchor="middle" class="small">2¹⁵</text>
  <rect data-budget="10000" data-prefix="11101" x="392" y="419" width="63" height="82" rx="5" fill="#f1f3f5" stroke="#667788"/>
  <text x="423.5" y="444" text-anchor="middle" class="small">11101</text>
  <text x="423.5" y="469" text-anchor="middle" class="small">UNKNOWN</text>
  <text x="423.5" y="488" text-anchor="middle" class="small">2¹⁵</text>
  <rect data-budget="10000" data-prefix="11110" x="460" y="419" width="63" height="82" rx="5" fill="#f1f3f5" stroke="#667788"/>
  <text x="491.5" y="444" text-anchor="middle" class="small">11110</text>
  <text x="491.5" y="469" text-anchor="middle" class="small">UNKNOWN</text>
  <text x="491.5" y="488" text-anchor="middle" class="small">2¹⁵</text>
  <rect data-budget="10000" data-prefix="11111" x="528" y="419" width="63" height="82" rx="5" fill="#f1f3f5" stroke="#667788"/>
  <text x="559.5" y="444" text-anchor="middle" class="small">11111</text>
  <text x="559.5" y="469" text-anchor="middle" class="small">UNKNOWN</text>
  <text x="559.5" y="488" text-anchor="middle" class="small">2¹⁵</text>
  <rect x="636" y="96" width="568" height="424" rx="9" fill="#fafbfc" stroke="#9aa6b2" stroke-width="2"/>
  <text x="920" y="128" text-anchor="middle" class="subtitle">30,000 ms · complete 2²⁰ cover · 32 UNKNOWN · 0 models</text>
  <rect data-budget="30000" data-prefix="00000" x="652" y="146" width="63" height="82" rx="5" fill="#f1f3f5" stroke="#667788"/>
  <text x="683.5" y="171" text-anchor="middle" class="small">00000</text>
  <text x="683.5" y="196" text-anchor="middle" class="small">UNKNOWN</text>
  <text x="683.5" y="215" text-anchor="middle" class="small">2¹⁵</text>
  <rect data-budget="30000" data-prefix="00001" x="720" y="146" width="63" height="82" rx="5" fill="#f1f3f5" stroke="#667788"/>
  <text x="751.5" y="171" text-anchor="middle" class="small">00001</text>
  <text x="751.5" y="196" text-anchor="middle" class="small">UNKNOWN</text>
  <text x="751.5" y="215" text-anchor="middle" class="small">2¹⁵</text>
  <rect data-budget="30000" data-prefix="00010" x="788" y="146" width="63" height="82" rx="5" fill="#f1f3f5" stroke="#667788"/>
  <text x="819.5" y="171" text-anchor="middle" class="small">00010</text>
  <text x="819.5" y="196" text-anchor="middle" class="small">UNKNOWN</text>
  <text x="819.5" y="215" text-anchor="middle" class="small">2¹⁵</text>
  <rect data-budget="30000" data-prefix="00011" x="856" y="146" width="63" height="82" rx="5" fill="#f1f3f5" stroke="#667788"/>
  <text x="887.5" y="171" text-anchor="middle" class="small">00011</text>
  <text x="887.5" y="196" text-anchor="middle" class="small">UNKNOWN</text>
  <text x="887.5" y="215" text-anchor="middle" class="small">2¹⁵</text>
  <rect data-budget="30000" data-prefix="00100" x="924" y="146" width="63" height="82" rx="5" fill="#f1f3f5" stroke="#667788"/>
  <text x="955.5" y="171" text-anchor="middle" class="small">00100</text>
  <text x="955.5" y="196" text-anchor="middle" class="small">UNKNOWN</text>
  <text x="955.5" y="215" text-anchor="middle" class="small">2¹⁵</text>
  <rect data-budget="30000" data-prefix="00101" x="992" y="146" width="63" height="82" rx="5" fill="#f1f3f5" stroke="#667788"/>
  <text x="1023.5" y="171" text-anchor="middle" class="small">00101</text>
  <text x="1023.5" y="196" text-anchor="middle" class="small">UNKNOWN</text>
  <text x="1023.5" y="215" text-anchor="middle" class="small">2¹⁵</text>
  <rect data-budget="30000" data-prefix="00110" x="1060" y="146" width="63" height="82" rx="5" fill="#f1f3f5" stroke="#667788"/>
  <text x="1091.5" y="171" text-anchor="middle" class="small">00110</text>
  <text x="1091.5" y="196" text-anchor="middle" class="small">UNKNOWN</text>
  <text x="1091.5" y="215" text-anchor="middle" class="small">2¹⁵</text>
  <rect data-budget="30000" data-prefix="00111" x="1128" y="146" width="63" height="82" rx="5" fill="#f1f3f5" stroke="#667788"/>
  <text x="1159.5" y="171" text-anchor="middle" class="small">00111</text>
  <text x="1159.5" y="196" text-anchor="middle" class="small">UNKNOWN</text>
  <text x="1159.5" y="215" text-anchor="middle" class="small">2¹⁵</text>
  <rect data-budget="30000" data-prefix="01000" x="652" y="237" width="63" height="82" rx="5" fill="#f1f3f5" stroke="#667788"/>
  <text x="683.5" y="262" text-anchor="middle" class="small">01000</text>
  <text x="683.5" y="287" text-anchor="middle" class="small">UNKNOWN</text>
  <text x="683.5" y="306" text-anchor="middle" class="small">2¹⁵</text>
  <rect data-budget="30000" data-prefix="01001" x="720" y="237" width="63" height="82" rx="5" fill="#f1f3f5" stroke="#667788"/>
  <text x="751.5" y="262" text-anchor="middle" class="small">01001</text>
  <text x="751.5" y="287" text-anchor="middle" class="small">UNKNOWN</text>
  <text x="751.5" y="306" text-anchor="middle" class="small">2¹⁵</text>
  <rect data-budget="30000" data-prefix="01010" x="788" y="237" width="63" height="82" rx="5" fill="#f1f3f5" stroke="#667788"/>
  <text x="819.5" y="262" text-anchor="middle" class="small">01010</text>
  <text x="819.5" y="287" text-anchor="middle" class="small">UNKNOWN</text>
  <text x="819.5" y="306" text-anchor="middle" class="small">2¹⁵</text>
  <rect data-budget="30000" data-prefix="01011" x="856" y="237" width="63" height="82" rx="5" fill="#f1f3f5" stroke="#667788"/>
  <text x="887.5" y="262" text-anchor="middle" class="small">01011</text>
  <text x="887.5" y="287" text-anchor="middle" class="small">UNKNOWN</text>
  <text x="887.5" y="306" text-anchor="middle" class="small">2¹⁵</text>
  <rect data-budget="30000" data-prefix="01100" x="924" y="237" width="63" height="82" rx="5" fill="#f1f3f5" stroke="#667788"/>
  <text x="955.5" y="262" text-anchor="middle" class="small">01100</text>
  <text x="955.5" y="287" text-anchor="middle" class="small">UNKNOWN</text>
  <text x="955.5" y="306" text-anchor="middle" class="small">2¹⁵</text>
  <rect data-budget="30000" data-prefix="01101" x="992" y="237" width="63" height="82" rx="5" fill="#f1f3f5" stroke="#667788"/>
  <text x="1023.5" y="262" text-anchor="middle" class="small">01101</text>
  <text x="1023.5" y="287" text-anchor="middle" class="small">UNKNOWN</text>
  <text x="1023.5" y="306" text-anchor="middle" class="small">2¹⁵</text>
  <rect data-budget="30000" data-prefix="01110" x="1060" y="237" width="63" height="82" rx="5" fill="#f1f3f5" stroke="#667788"/>
  <text x="1091.5" y="262" text-anchor="middle" class="small">01110</text>
  <text x="1091.5" y="287" text-anchor="middle" class="small">UNKNOWN</text>
  <text x="1091.5" y="306" text-anchor="middle" class="small">2¹⁵</text>
  <rect data-budget="30000" data-prefix="01111" x="1128" y="237" width="63" height="82" rx="5" fill="#f1f3f5" stroke="#667788"/>
  <text x="1159.5" y="262" text-anchor="middle" class="small">01111</text>
  <text x="1159.5" y="287" text-anchor="middle" class="small">UNKNOWN</text>
  <text x="1159.5" y="306" text-anchor="middle" class="small">2¹⁵</text>
  <rect data-budget="30000" data-prefix="10000" x="652" y="328" width="63" height="82" rx="5" fill="#f1f3f5" stroke="#667788"/>
  <text x="683.5" y="353" text-anchor="middle" class="small">10000</text>
  <text x="683.5" y="378" text-anchor="middle" class="small">UNKNOWN</text>
  <text x="683.5" y="397" text-anchor="middle" class="small">2¹⁵</text>
  <rect data-budget="30000" data-prefix="10001" x="720" y="328" width="63" height="82" rx="5" fill="#f1f3f5" stroke="#667788"/>
  <text x="751.5" y="353" text-anchor="middle" class="small">10001</text>
  <text x="751.5" y="378" text-anchor="middle" class="small">UNKNOWN</text>
  <text x="751.5" y="397" text-anchor="middle" class="small">2¹⁵</text>
  <rect data-budget="30000" data-prefix="10010" x="788" y="328" width="63" height="82" rx="5" fill="#f1f3f5" stroke="#667788"/>
  <text x="819.5" y="353" text-anchor="middle" class="small">10010</text>
  <text x="819.5" y="378" text-anchor="middle" class="small">UNKNOWN</text>
  <text x="819.5" y="397" text-anchor="middle" class="small">2¹⁵</text>
  <rect data-budget="30000" data-prefix="10011" x="856" y="328" width="63" height="82" rx="5" fill="#f1f3f5" stroke="#667788"/>
  <text x="887.5" y="353" text-anchor="middle" class="small">10011</text>
  <text x="887.5" y="378" text-anchor="middle" class="small">UNKNOWN</text>
  <text x="887.5" y="397" text-anchor="middle" class="small">2¹⁵</text>
  <rect data-budget="30000" data-prefix="10100" x="924" y="328" width="63" height="82" rx="5" fill="#f1f3f5" stroke="#667788"/>
  <text x="955.5" y="353" text-anchor="middle" class="small">10100</text>
  <text x="955.5" y="378" text-anchor="middle" class="small">UNKNOWN</text>
  <text x="955.5" y="397" text-anchor="middle" class="small">2¹⁵</text>
  <rect data-budget="30000" data-prefix="10101" x="992" y="328" width="63" height="82" rx="5" fill="#f1f3f5" stroke="#667788"/>
  <text x="1023.5" y="353" text-anchor="middle" class="small">10101</text>
  <text x="1023.5" y="378" text-anchor="middle" class="small">UNKNOWN</text>
  <text x="1023.5" y="397" text-anchor="middle" class="small">2¹⁵</text>
  <rect data-budget="30000" data-prefix="10110" x="1060" y="328" width="63" height="82" rx="5" fill="#f1f3f5" stroke="#667788"/>
  <text x="1091.5" y="353" text-anchor="middle" class="small">10110</text>
  <text x="1091.5" y="378" text-anchor="middle" class="small">UNKNOWN</text>
  <text x="1091.5" y="397" text-anchor="middle" class="small">2¹⁵</text>
  <rect data-budget="30000" data-prefix="10111" x="1128" y="328" width="63" height="82" rx="5" fill="#f1f3f5" stroke="#667788"/>
  <text x="1159.5" y="353" text-anchor="middle" class="small">10111</text>
  <text x="1159.5" y="378" text-anchor="middle" class="small">UNKNOWN</text>
  <text x="1159.5" y="397" text-anchor="middle" class="small">2¹⁵</text>
  <rect data-budget="30000" data-prefix="11000" x="652" y="419" width="63" height="82" rx="5" fill="#f1f3f5" stroke="#667788"/>
  <text x="683.5" y="444" text-anchor="middle" class="small">11000</text>
  <text x="683.5" y="469" text-anchor="middle" class="small">UNKNOWN</text>
  <text x="683.5" y="488" text-anchor="middle" class="small">2¹⁵</text>
  <rect data-budget="30000" data-prefix="11001" x="720" y="419" width="63" height="82" rx="5" fill="#f1f3f5" stroke="#667788"/>
  <text x="751.5" y="444" text-anchor="middle" class="small">11001</text>
  <text x="751.5" y="469" text-anchor="middle" class="small">UNKNOWN</text>
  <text x="751.5" y="488" text-anchor="middle" class="small">2¹⁵</text>
  <rect data-budget="30000" data-prefix="11010" x="788" y="419" width="63" height="82" rx="5" fill="#f1f3f5" stroke="#667788"/>
  <text x="819.5" y="444" text-anchor="middle" class="small">11010</text>
  <text x="819.5" y="469" text-anchor="middle" class="small">UNKNOWN</text>
  <text x="819.5" y="488" text-anchor="middle" class="small">2¹⁵</text>
  <rect data-budget="30000" data-prefix="11011" x="856" y="419" width="63" height="82" rx="5" fill="#f1f3f5" stroke="#667788"/>
  <text x="887.5" y="444" text-anchor="middle" class="small">11011</text>
  <text x="887.5" y="469" text-anchor="middle" class="small">UNKNOWN</text>
  <text x="887.5" y="488" text-anchor="middle" class="small">2¹⁵</text>
  <rect data-budget="30000" data-prefix="11100" x="924" y="419" width="63" height="82" rx="5" fill="#f1f3f5" stroke="#667788"/>
  <text x="955.5" y="444" text-anchor="middle" class="small">11100</text>
  <text x="955.5" y="469" text-anchor="middle" class="small">UNKNOWN</text>
  <text x="955.5" y="488" text-anchor="middle" class="small">2¹⁵</text>
  <rect data-budget="30000" data-prefix="11101" x="992" y="419" width="63" height="82" rx="5" fill="#f1f3f5" stroke="#667788"/>
  <text x="1023.5" y="444" text-anchor="middle" class="small">11101</text>
  <text x="1023.5" y="469" text-anchor="middle" class="small">UNKNOWN</text>
  <text x="1023.5" y="488" text-anchor="middle" class="small">2¹⁵</text>
  <rect data-budget="30000" data-prefix="11110" x="1060" y="419" width="63" height="82" rx="5" fill="#f1f3f5" stroke="#667788"/>
  <text x="1091.5" y="444" text-anchor="middle" class="small">11110</text>
  <text x="1091.5" y="469" text-anchor="middle" class="small">UNKNOWN</text>
  <text x="1091.5" y="488" text-anchor="middle" class="small">2¹⁵</text>
  <rect data-budget="30000" data-prefix="11111" x="1128" y="419" width="63" height="82" rx="5" fill="#f1f3f5" stroke="#667788"/>
  <text x="1159.5" y="444" text-anchor="middle" class="small">11111</text>
  <text x="1159.5" y="469" text-anchor="middle" class="small">UNKNOWN</text>
  <text x="1159.5" y="488" text-anchor="middle" class="small">2¹⁵</text>
  <path d="M 36 556 L 36 584 L 1204 584 L 1204 556" fill="none" stroke="#17202a" stroke-width="2"/>
  <text x="620" y="612" text-anchor="middle" class="subtitle">Each budget executes 32 × 2¹⁵ = 2²⁰ candidates; formula bytes and hashes are identical across budgets.</text>
  <text x="36" y="658" class="small">Every formula observes eight counter-related blocks (4,096 target bits) under one shared unknown low-20 key value.</text>
  <text x="36" y="690" class="small">All 64 processes return normally, no external guard fires, and both complete covers execute without early stop.</text>
  <text x="36" y="722" class="small">The 10-second secondary and 30-second primary predictions are both not retained on this challenge.</text>
  <text x="36" y="754" class="small">UNKNOWN is not UNSAT: this is a resource/representation boundary, with no absence, recovery, or uniqueness claim.</text>
</svg>
