<?xml version="1.0" encoding="UTF-8"?>
<svg xmlns="http://www.w3.org/2000/svg" width="1240" height="760" viewBox="0 0 1240 760" role="img" aria-labelledby="title desc">
  <title id="title">A187 fixed-rlimit ChaCha5 shared-key search shape</title>
  <desc id="desc">Exact Z3 decisions and conflicts for ten predeclared formulations at rlimit ten million.</desc>
  <rect width="100%" height="100%" fill="#ffffff"/>
  <style>
    text { font-family: ui-monospace, SFMono-Regular, Menlo, Consolas, monospace; fill: #17202a; }
    .title { font-family: ui-sans-serif, system-ui, sans-serif; font-size: 26px; font-weight: 700; }
    .subtitle { font-family: ui-sans-serif, system-ui, sans-serif; font-size: 15px; fill: #43515d; }
    .label { font-size: 13px; }
    .small { font-size: 11px; fill: #43515d; }
    .value { font-size: 11px; font-weight: 700; }
  </style>
  <text x="36" y="43" class="title">A187 — fixed-rlimit shared-key search shape</text>
  <text x="36" y="70" class="subtitle">Reduced ChaCha5 · 40 unknown key bits · 216 known key bits · all statuses unknown</text>
  <rect x="930" y="30" width="16" height="12" fill="#2468b4"/><text x="954" y="41" class="label">decisions</text>
  <rect x="1046" y="30" width="16" height="12" fill="#d35454"/><text x="1070" y="41" class="label">conflicts</text>
  <line x1="338.00" y1="94" x2="338.00" y2="670" stroke="#d7dde3" stroke-width="1"/>
  <text x="338.00" y="690" text-anchor="middle" class="small">10²</text>
  <line x1="611.33" y1="94" x2="611.33" y2="670" stroke="#d7dde3" stroke-width="1"/>
  <text x="611.33" y="690" text-anchor="middle" class="small">10³</text>
  <line x1="884.67" y1="94" x2="884.67" y2="670" stroke="#d7dde3" stroke-width="1"/>
  <text x="884.67" y="690" text-anchor="middle" class="small">10⁴</text>
  <line x1="1158.00" y1="94" x2="1158.00" y2="670" stroke="#d7dde3" stroke-width="1"/>
  <text x="1158.00" y="690" text-anchor="middle" class="small">10⁵</text>
  <text x="748" y="716" text-anchor="middle" class="subtitle">log₁₀ solver count (exact values printed)</text>
  <rect x="24" y="93" width="1190" height="47" rx="5" fill="#fff4df"/>
  <text x="36" y="119" class="label">split4_full_b1</text>
  <rect x="338" y="105" width="696.34" height="12" rx="2" fill="#2468b4"/>
  <text x="1041.34" y="115" class="value">35,285</text>
  <rect x="338" y="121" width="674.62" height="12" rx="2" fill="#d35454"/>
  <text x="1019.62" y="131" class="value">29,385</text>
  <text x="36" y="173" class="label">split4_full_b2</text>
  <rect x="338" y="159" width="404.85" height="12" rx="2" fill="#2468b4"/>
  <text x="749.85" y="169" class="value">3,028</text>
  <rect x="338" y="175" width="322.57" height="12" rx="2" fill="#d35454"/>
  <text x="667.57" y="185" class="value">1,514</text>
  <text x="36" y="227" class="label">split4_full_b4</text>
  <rect x="338" y="213" width="314.71" height="12" rx="2" fill="#2468b4"/>
  <text x="659.71" y="223" class="value">1,417</text>
  <rect x="338" y="229" width="207.64" height="12" rx="2" fill="#d35454"/>
  <text x="552.64" y="239" class="value">575</text>
  <rect x="24" y="255" width="1190" height="47" rx="5" fill="#eaf8ee"/>
  <text x="36" y="281" class="label">split4_full_b8</text>
  <rect x="338" y="267" width="335.34" height="12" rx="2" fill="#2468b4"/>
  <text x="680.34" y="277" class="value">1,686</text>
  <rect x="338" y="283" width="161.25" height="12" rx="2" fill="#d35454"/>
  <text x="506.25" y="293" class="value">389</text>
  <text x="36" y="335" class="label">split4_sparse512_b2</text>
  <rect x="338" y="321" width="673.00" height="12" rx="2" fill="#2468b4"/>
  <text x="1018.00" y="331" class="value">28,987</text>
  <rect x="338" y="337" width="656.70" height="12" rx="2" fill="#d35454"/>
  <text x="1001.70" y="347" class="value">25,267</text>
  <text x="36" y="389" class="label">split4_sparse512_b4</text>
  <rect x="338" y="375" width="514.09" height="12" rx="2" fill="#2468b4"/>
  <text x="859.09" y="385" class="value">7,600</text>
  <rect x="338" y="391" width="407.49" height="12" rx="2" fill="#d35454"/>
  <text x="752.49" y="401" class="value">3,096</text>
  <text x="36" y="443" class="label">split4_sparse512_b8</text>
  <rect x="338" y="429" width="536.57" height="12" rx="2" fill="#2468b4"/>
  <text x="881.57" y="439" class="value">9,185</text>
  <rect x="338" y="445" width="445.82" height="12" rx="2" fill="#d35454"/>
  <text x="790.82" y="455" class="value">4,276</text>
  <text x="36" y="497" class="label">forward_delta_b2</text>
  <rect x="338" y="483" width="603.60" height="12" rx="2" fill="#2468b4"/>
  <text x="948.60" y="493" class="value">16,155</text>
  <rect x="338" y="499" width="481.70" height="12" rx="2" fill="#d35454"/>
  <text x="826.70" y="509" class="value">5,785</text>
  <text x="36" y="551" class="label">forward_delta_b4</text>
  <rect x="338" y="537" width="584.84" height="12" rx="2" fill="#2468b4"/>
  <text x="929.84" y="547" class="value">13,793</text>
  <rect x="338" y="553" width="522.41" height="12" rx="2" fill="#d35454"/>
  <text x="867.41" y="563" class="value">8,152</text>
  <text x="36" y="605" class="label">forward_delta_b8</text>
  <rect x="338" y="591" width="544.22" height="12" rx="2" fill="#2468b4"/>
  <text x="889.22" y="601" class="value">9,796</text>
  <rect x="338" y="607" width="201.93" height="12" rx="2" fill="#d35454"/>
  <text x="546.93" y="617" class="value">548</text>
  <text x="36" y="742" class="small">Full b1 → b8: decisions 35,285 → 1,686 (20.93×); conflicts 29,385 → 389 (75.54×).</text>
</svg>
