<?xml version="1.0"?>
<svg xmlns="http://www.w3.org/2000/svg" width="1240" height="700">
<style>.t{font:700 24px system-ui}.s{font:600 15px system-ui}.x{font:12px system-ui;fill:#475569}.sat{fill:#dcfce7;stroke:#15803d}.unk{fill:#f1f3f5;stroke:#7c3aed}.box{fill:#fafbfc;stroke:#9aa6b2}</style>
<rect width="1240" height="700" fill="white"/>
<text x="36" y="42" class="t">A207 — complete structural-order portfolio boundary</text>
<text x="36" y="70" class="s">352 new cells · 416 combined calibrated cells · all valid UNKNOWN</text>
<rect x="36" y="96" width="1168" height="490" rx="9" class="box"/>
<text x="58" y="130" class="s">Same-mode total ratio versus A206 bidirectional-min-distance baseline</text>
<text x="790" y="158" class="x">conflicts</text>
<text x="970" y="158" class="x">decisions</text>
<text x="58" y="194" class="x">occurrence_degree_ascending</text>
<rect data-candidate="occurrence_degree_ascending" data-metric="conflicts" x="720" y="176" width="56.177" height="22" rx="4" class="unk"/>
<text x="786.1770186335403" y="192" class="x">1.338×</text>
<rect data-candidate="occurrence_degree_ascending" data-metric="decisions" x="900" y="176" width="80.810" height="22" rx="4" class="unk"/>
<text x="990.8098315793457" y="192" class="x">1.924×</text>
<text x="58" y="229" class="x">adjacency_degree_ascending</text>
<rect data-candidate="adjacency_degree_ascending" data-metric="conflicts" x="720" y="211" width="56.850" height="22" rx="4" class="unk"/>
<text x="786.8501552795032" y="227" class="x">1.354×</text>
<rect data-candidate="adjacency_degree_ascending" data-metric="decisions" x="900" y="211" width="85.368" height="22" rx="4" class="unk"/>
<text x="995.3683878656418" y="227" class="x">2.033×</text>
<text x="58" y="264" class="x">adjacency_degree_descending</text>
<rect data-candidate="adjacency_degree_descending" data-metric="conflicts" x="720" y="246" width="62.892" height="22" rx="4" class="unk"/>
<text x="792.8920807453417" y="262" class="x">1.497×</text>
<rect data-candidate="adjacency_degree_descending" data-metric="decisions" x="900" y="246" width="67.992" height="22" rx="4" class="unk"/>
<text x="977.9924838105567" y="262" class="x">1.619×</text>
<text x="58" y="299" class="x">occurrence_span_ascending</text>
<rect data-candidate="occurrence_span_ascending" data-metric="conflicts" x="720" y="281" width="37.620" height="22" rx="4" class="unk"/>
<text x="767.6195652173913" y="297" class="x">0.896×</text>
<rect data-candidate="occurrence_span_ascending" data-metric="decisions" x="900" y="281" width="68.081" height="22" rx="4" class="unk"/>
<text x="978.0814674224893" y="297" class="x">1.621×</text>
<text x="58" y="334" class="x">output_unit_bfs_near</text>
<rect data-candidate="output_unit_bfs_near" data-metric="conflicts" x="720" y="316" width="33.182" height="22" rx="4" class="unk"/>
<text x="763.1824534161491" y="332" class="x">0.790×</text>
<rect data-candidate="output_unit_bfs_near" data-metric="decisions" x="900" y="316" width="44.233" height="22" rx="4" class="unk"/>
<text x="954.2330649280224" y="332" class="x">1.053×</text>
<text x="58" y="369" class="x">output_unit_bfs_far</text>
<rect data-candidate="output_unit_bfs_far" data-metric="conflicts" x="720" y="351" width="115.860" height="22" rx="4" class="sat"/>
<text x="845.860248447205" y="367" class="x">2.759×</text>
<rect data-candidate="output_unit_bfs_far" data-metric="decisions" x="900" y="351" width="238.800" height="22" rx="4" class="sat"/>
<text x="1148.7999697334653" y="367" class="x">5.686×</text>
<text x="58" y="404" class="x">signed_key_minus_output_ascending</text>
<rect data-candidate="signed_key_minus_output_ascending" data-metric="conflicts" x="720" y="386" width="19.088" height="22" rx="4" class="unk"/>
<text x="749.087768995294" y="402" class="x">0.454×</text>
<rect data-candidate="signed_key_minus_output_ascending" data-metric="decisions" x="900" y="386" width="1.455" height="22" rx="4" class="unk"/>
<text x="911.4553951577785" y="402" class="x">0.035×</text>
<text x="58" y="439" class="x">signed_key_minus_output_descending</text>
<rect data-candidate="signed_key_minus_output_descending" data-metric="conflicts" x="720" y="421" width="45.176" height="22" rx="4" class="unk"/>
<text x="775.1762422360248" y="437" class="x">1.076×</text>
<rect data-candidate="signed_key_minus_output_descending" data-metric="decisions" x="900" y="421" width="71.846" height="22" rx="4" class="unk"/>
<text x="981.8460568380299" y="437" class="x">1.711×</text>
<text x="58" y="474" class="x">output_layer_parity_interleave</text>
<rect data-candidate="output_layer_parity_interleave" data-metric="conflicts" x="720" y="456" width="49.828" height="22" rx="4" class="unk"/>
<text x="779.8276397515529" y="472" class="x">1.186×</text>
<rect data-candidate="output_layer_parity_interleave" data-metric="decisions" x="900" y="456" width="59.800" height="22" rx="4" class="unk"/>
<text x="969.8004300370135" y="472" class="x">1.424×</text>
<text x="58" y="509" class="x">fiedler_ascending</text>
<rect data-candidate="fiedler_ascending" data-metric="conflicts" x="720" y="491" width="49.072" height="22" rx="4" class="unk"/>
<text x="779.0722049689441" y="507" class="x">1.168×</text>
<rect data-candidate="fiedler_ascending" data-metric="decisions" x="900" y="491" width="73.379" height="22" rx="4" class="unk"/>
<text x="983.3794351507967" y="507" class="x">1.747×</text>
<text x="58" y="544" class="x">fiedler_center_out</text>
<rect data-candidate="fiedler_center_out" data-metric="conflicts" x="720" y="526" width="44.839" height="22" rx="4" class="unk"/>
<text x="774.8392857142857" y="542" class="x">1.068×</text>
<rect data-candidate="fiedler_center_out" data-metric="decisions" x="900" y="526" width="59.118" height="22" rx="4" class="unk"/>
<text x="969.1182223455303" y="542" class="x">1.408×</text>
<text x="58" y="610" class="s">output_unit_bfs_far: 2.759× conflicts · 5.686× decisions · 0.594× propagations</text>
<text x="58" y="634" class="x">Every prefix: conflict ratio ≥1.703 · decision ratio ≥3.315</text>
<text x="58" y="660" class="s">No candidate resolves a cell; the progress map exposes a systematic search-density outlier.</text>
<text x="58" y="684" class="x">UNKNOWN is not UNSAT · exact retained observations only</text>
</svg>
