<?xml version="1.0" encoding="UTF-8"?>
<svg xmlns="http://www.w3.org/2000/svg" width="1240" height="820" viewBox="0 0 1240 820" role="img" aria-labelledby="title desc">
  <title id="title">A193 prospective ChaCha8 width-20 complete-partition transfer</title>
  <desc id="desc">Thirty-two structurally complete split7 prefix cells covering the full 20-bit domain, with one independently confirmed SAT recovery and thirty-one bounded UNKNOWN cells.</desc>
  <rect width="100%" height="100%" fill="#ffffff"/>
  <style>
    text { font-family: ui-monospace, SFMono-Regular, Menlo, Consolas, monospace; fill: #17202a; }
    .title { font-family: ui-sans-serif, system-ui, sans-serif; font-size: 26px; font-weight: 700; }
    .subtitle { font-family: ui-sans-serif, system-ui, sans-serif; font-size: 15px; fill: #43515d; }
    .label { font-size: 13px; }
    .small { font-size: 11px; fill: #43515d; }
    .value { font-size: 11px; font-weight: 700; }
  </style>
  <text x="36" y="43" class="title">A193 — prospective round-8 width-20 depth transfer</text>
  <text x="36" y="70" class="subtitle">Fresh reduced ChaCha8 · split7 · unchanged 2²⁰ domain · 32 disjoint 2¹⁵ cells</text>
  <rect x="36" y="104" width="139" height="116" rx="7" fill="#f1f3f5" stroke="#667788" stroke-width="2"/>
  <text x="105.5" y="131" text-anchor="middle" class="label">prefix 00000</text>
  <text x="105.5" y="163" text-anchor="middle" class="value" fill="#667788">UNKNOWN</text>
  <text x="105.5" y="190" text-anchor="middle" class="small">2¹⁵ candidates</text>
  <rect x="184" y="104" width="139" height="116" rx="7" fill="#f1f3f5" stroke="#667788" stroke-width="2"/>
  <text x="253.5" y="131" text-anchor="middle" class="label">prefix 00001</text>
  <text x="253.5" y="163" text-anchor="middle" class="value" fill="#667788">UNKNOWN</text>
  <text x="253.5" y="190" text-anchor="middle" class="small">2¹⁵ candidates</text>
  <rect x="332" y="104" width="139" height="116" rx="7" fill="#f1f3f5" stroke="#667788" stroke-width="2"/>
  <text x="401.5" y="131" text-anchor="middle" class="label">prefix 00010</text>
  <text x="401.5" y="163" text-anchor="middle" class="value" fill="#667788">UNKNOWN</text>
  <text x="401.5" y="190" text-anchor="middle" class="small">2¹⁵ candidates</text>
  <rect x="480" y="104" width="139" height="116" rx="7" fill="#f1f3f5" stroke="#667788" stroke-width="2"/>
  <text x="549.5" y="131" text-anchor="middle" class="label">prefix 00011</text>
  <text x="549.5" y="163" text-anchor="middle" class="value" fill="#667788">UNKNOWN</text>
  <text x="549.5" y="190" text-anchor="middle" class="small">2¹⁵ candidates</text>
  <rect x="628" y="104" width="139" height="116" rx="7" fill="#f1f3f5" stroke="#667788" stroke-width="2"/>
  <text x="697.5" y="131" text-anchor="middle" class="label">prefix 00100</text>
  <text x="697.5" y="163" text-anchor="middle" class="value" fill="#667788">UNKNOWN</text>
  <text x="697.5" y="190" text-anchor="middle" class="small">2¹⁵ candidates</text>
  <rect x="776" y="104" width="139" height="116" rx="7" fill="#f1f3f5" stroke="#667788" stroke-width="2"/>
  <text x="845.5" y="131" text-anchor="middle" class="label">prefix 00101</text>
  <text x="845.5" y="163" text-anchor="middle" class="value" fill="#667788">UNKNOWN</text>
  <text x="845.5" y="190" text-anchor="middle" class="small">2¹⁵ candidates</text>
  <rect x="924" y="104" width="139" height="116" rx="7" fill="#f1f3f5" stroke="#667788" stroke-width="2"/>
  <text x="993.5" y="131" text-anchor="middle" class="label">prefix 00110</text>
  <text x="993.5" y="163" text-anchor="middle" class="value" fill="#667788">UNKNOWN</text>
  <text x="993.5" y="190" text-anchor="middle" class="small">2¹⁵ candidates</text>
  <rect x="1072" y="104" width="139" height="116" rx="7" fill="#f1f3f5" stroke="#667788" stroke-width="2"/>
  <text x="1141.5" y="131" text-anchor="middle" class="label">prefix 00111</text>
  <text x="1141.5" y="163" text-anchor="middle" class="value" fill="#667788">UNKNOWN</text>
  <text x="1141.5" y="190" text-anchor="middle" class="small">2¹⁵ candidates</text>
  <rect x="36" y="236" width="139" height="116" rx="7" fill="#f1f3f5" stroke="#667788" stroke-width="2"/>
  <text x="105.5" y="263" text-anchor="middle" class="label">prefix 01000</text>
  <text x="105.5" y="295" text-anchor="middle" class="value" fill="#667788">UNKNOWN</text>
  <text x="105.5" y="322" text-anchor="middle" class="small">2¹⁵ candidates</text>
  <rect x="184" y="236" width="139" height="116" rx="7" fill="#f1f3f5" stroke="#667788" stroke-width="2"/>
  <text x="253.5" y="263" text-anchor="middle" class="label">prefix 01001</text>
  <text x="253.5" y="295" text-anchor="middle" class="value" fill="#667788">UNKNOWN</text>
  <text x="253.5" y="322" text-anchor="middle" class="small">2¹⁵ candidates</text>
  <rect x="332" y="236" width="139" height="116" rx="7" fill="#f1f3f5" stroke="#667788" stroke-width="2"/>
  <text x="401.5" y="263" text-anchor="middle" class="label">prefix 01010</text>
  <text x="401.5" y="295" text-anchor="middle" class="value" fill="#667788">UNKNOWN</text>
  <text x="401.5" y="322" text-anchor="middle" class="small">2¹⁵ candidates</text>
  <rect x="480" y="236" width="139" height="116" rx="7" fill="#dff3e4" stroke="#238a4b" stroke-width="2"/>
  <text x="549.5" y="263" text-anchor="middle" class="label">prefix 01011</text>
  <text x="549.5" y="295" text-anchor="middle" class="value" fill="#238a4b">SAT</text>
  <text x="549.5" y="322" text-anchor="middle" class="small">2¹⁵ candidates</text>
  <text x="549.5" y="342" text-anchor="middle" class="small">low20 0x5a40a · 512/512</text>
  <rect x="628" y="236" width="139" height="116" rx="7" fill="#f1f3f5" stroke="#667788" stroke-width="2"/>
  <text x="697.5" y="263" text-anchor="middle" class="label">prefix 01100</text>
  <text x="697.5" y="295" text-anchor="middle" class="value" fill="#667788">UNKNOWN</text>
  <text x="697.5" y="322" text-anchor="middle" class="small">2¹⁵ candidates</text>
  <rect x="776" y="236" width="139" height="116" rx="7" fill="#f1f3f5" stroke="#667788" stroke-width="2"/>
  <text x="845.5" y="263" text-anchor="middle" class="label">prefix 01101</text>
  <text x="845.5" y="295" text-anchor="middle" class="value" fill="#667788">UNKNOWN</text>
  <text x="845.5" y="322" text-anchor="middle" class="small">2¹⁵ candidates</text>
  <rect x="924" y="236" width="139" height="116" rx="7" fill="#f1f3f5" stroke="#667788" stroke-width="2"/>
  <text x="993.5" y="263" text-anchor="middle" class="label">prefix 01110</text>
  <text x="993.5" y="295" text-anchor="middle" class="value" fill="#667788">UNKNOWN</text>
  <text x="993.5" y="322" text-anchor="middle" class="small">2¹⁵ candidates</text>
  <rect x="1072" y="236" width="139" height="116" rx="7" fill="#f1f3f5" stroke="#667788" stroke-width="2"/>
  <text x="1141.5" y="263" text-anchor="middle" class="label">prefix 01111</text>
  <text x="1141.5" y="295" text-anchor="middle" class="value" fill="#667788">UNKNOWN</text>
  <text x="1141.5" y="322" text-anchor="middle" class="small">2¹⁵ candidates</text>
  <rect x="36" y="368" width="139" height="116" rx="7" fill="#f1f3f5" stroke="#667788" stroke-width="2"/>
  <text x="105.5" y="395" text-anchor="middle" class="label">prefix 10000</text>
  <text x="105.5" y="427" text-anchor="middle" class="value" fill="#667788">UNKNOWN</text>
  <text x="105.5" y="454" text-anchor="middle" class="small">2¹⁵ candidates</text>
  <rect x="184" y="368" width="139" height="116" rx="7" fill="#f1f3f5" stroke="#667788" stroke-width="2"/>
  <text x="253.5" y="395" text-anchor="middle" class="label">prefix 10001</text>
  <text x="253.5" y="427" text-anchor="middle" class="value" fill="#667788">UNKNOWN</text>
  <text x="253.5" y="454" text-anchor="middle" class="small">2¹⁵ candidates</text>
  <rect x="332" y="368" width="139" height="116" rx="7" fill="#f1f3f5" stroke="#667788" stroke-width="2"/>
  <text x="401.5" y="395" text-anchor="middle" class="label">prefix 10010</text>
  <text x="401.5" y="427" text-anchor="middle" class="value" fill="#667788">UNKNOWN</text>
  <text x="401.5" y="454" text-anchor="middle" class="small">2¹⁵ candidates</text>
  <rect x="480" y="368" width="139" height="116" rx="7" fill="#f1f3f5" stroke="#667788" stroke-width="2"/>
  <text x="549.5" y="395" text-anchor="middle" class="label">prefix 10011</text>
  <text x="549.5" y="427" text-anchor="middle" class="value" fill="#667788">UNKNOWN</text>
  <text x="549.5" y="454" text-anchor="middle" class="small">2¹⁵ candidates</text>
  <rect x="628" y="368" width="139" height="116" rx="7" fill="#f1f3f5" stroke="#667788" stroke-width="2"/>
  <text x="697.5" y="395" text-anchor="middle" class="label">prefix 10100</text>
  <text x="697.5" y="427" text-anchor="middle" class="value" fill="#667788">UNKNOWN</text>
  <text x="697.5" y="454" text-anchor="middle" class="small">2¹⁵ candidates</text>
  <rect x="776" y="368" width="139" height="116" rx="7" fill="#f1f3f5" stroke="#667788" stroke-width="2"/>
  <text x="845.5" y="395" text-anchor="middle" class="label">prefix 10101</text>
  <text x="845.5" y="427" text-anchor="middle" class="value" fill="#667788">UNKNOWN</text>
  <text x="845.5" y="454" text-anchor="middle" class="small">2¹⁵ candidates</text>
  <rect x="924" y="368" width="139" height="116" rx="7" fill="#f1f3f5" stroke="#667788" stroke-width="2"/>
  <text x="993.5" y="395" text-anchor="middle" class="label">prefix 10110</text>
  <text x="993.5" y="427" text-anchor="middle" class="value" fill="#667788">UNKNOWN</text>
  <text x="993.5" y="454" text-anchor="middle" class="small">2¹⁵ candidates</text>
  <rect x="1072" y="368" width="139" height="116" rx="7" fill="#f1f3f5" stroke="#667788" stroke-width="2"/>
  <text x="1141.5" y="395" text-anchor="middle" class="label">prefix 10111</text>
  <text x="1141.5" y="427" text-anchor="middle" class="value" fill="#667788">UNKNOWN</text>
  <text x="1141.5" y="454" text-anchor="middle" class="small">2¹⁵ candidates</text>
  <rect x="36" y="500" width="139" height="116" rx="7" fill="#f1f3f5" stroke="#667788" stroke-width="2"/>
  <text x="105.5" y="527" text-anchor="middle" class="label">prefix 11000</text>
  <text x="105.5" y="559" text-anchor="middle" class="value" fill="#667788">UNKNOWN</text>
  <text x="105.5" y="586" text-anchor="middle" class="small">2¹⁵ candidates</text>
  <rect x="184" y="500" width="139" height="116" rx="7" fill="#f1f3f5" stroke="#667788" stroke-width="2"/>
  <text x="253.5" y="527" text-anchor="middle" class="label">prefix 11001</text>
  <text x="253.5" y="559" text-anchor="middle" class="value" fill="#667788">UNKNOWN</text>
  <text x="253.5" y="586" text-anchor="middle" class="small">2¹⁵ candidates</text>
  <rect x="332" y="500" width="139" height="116" rx="7" fill="#f1f3f5" stroke="#667788" stroke-width="2"/>
  <text x="401.5" y="527" text-anchor="middle" class="label">prefix 11010</text>
  <text x="401.5" y="559" text-anchor="middle" class="value" fill="#667788">UNKNOWN</text>
  <text x="401.5" y="586" text-anchor="middle" class="small">2¹⁵ candidates</text>
  <rect x="480" y="500" width="139" height="116" rx="7" fill="#f1f3f5" stroke="#667788" stroke-width="2"/>
  <text x="549.5" y="527" text-anchor="middle" class="label">prefix 11011</text>
  <text x="549.5" y="559" text-anchor="middle" class="value" fill="#667788">UNKNOWN</text>
  <text x="549.5" y="586" text-anchor="middle" class="small">2¹⁵ candidates</text>
  <rect x="628" y="500" width="139" height="116" rx="7" fill="#f1f3f5" stroke="#667788" stroke-width="2"/>
  <text x="697.5" y="527" text-anchor="middle" class="label">prefix 11100</text>
  <text x="697.5" y="559" text-anchor="middle" class="value" fill="#667788">UNKNOWN</text>
  <text x="697.5" y="586" text-anchor="middle" class="small">2¹⁵ candidates</text>
  <rect x="776" y="500" width="139" height="116" rx="7" fill="#f1f3f5" stroke="#667788" stroke-width="2"/>
  <text x="845.5" y="527" text-anchor="middle" class="label">prefix 11101</text>
  <text x="845.5" y="559" text-anchor="middle" class="value" fill="#667788">UNKNOWN</text>
  <text x="845.5" y="586" text-anchor="middle" class="small">2¹⁵ candidates</text>
  <rect x="924" y="500" width="139" height="116" rx="7" fill="#f1f3f5" stroke="#667788" stroke-width="2"/>
  <text x="993.5" y="527" text-anchor="middle" class="label">prefix 11110</text>
  <text x="993.5" y="559" text-anchor="middle" class="value" fill="#667788">UNKNOWN</text>
  <text x="993.5" y="586" text-anchor="middle" class="small">2¹⁵ candidates</text>
  <rect x="1072" y="500" width="139" height="116" rx="7" fill="#f1f3f5" stroke="#667788" stroke-width="2"/>
  <text x="1141.5" y="527" text-anchor="middle" class="label">prefix 11111</text>
  <text x="1141.5" y="559" text-anchor="middle" class="value" fill="#667788">UNKNOWN</text>
  <text x="1141.5" y="586" text-anchor="middle" class="small">2¹⁵ candidates</text>
  <path d="M 36 650 L 36 678 L 1211 678 L 1211 650" fill="none" stroke="#17202a" stroke-width="2"/>
  <text x="623.5" y="706" text-anchor="middle" class="subtitle">32 × 2¹⁵ = 2²⁰: structural partition coverage equals all 1,048,576 original candidates.</text>
  <text x="36" y="744" class="small">Prefix 01011 returns low20 0x5a40a with independent 512-bit confirmation and control rejection.</text>
  <text x="36" y="770" class="small">The other 31 cells are UNKNOWN, not UNSAT: recovery transfer is retained; uniqueness is not adjudicated.</text>
  <text x="36" y="796" class="small">All 32 predeclared cells execute in fixed numeric order without early stop.</text>
</svg>
